{"glyphs":{"0":{"ha":1161,"x_min":0,"x_max":0,"o":"m 109 442 b 575 -27 109 128 327 -27 b 1052 446 824 -27 1052 124 b 584 922 1052 767 826 922 b 109 442 348 922 109 776 z m 254 444 b 581 802 254 677 403 802 b 907 444 758 802 907 677 b 580 91 907 215 759 91 b 254 444 401 91 254 216 z "},"1":{"ha":597,"x_min":0,"x_max":0,"o":"m 295 769 l 295 0 l 433 0 l 433 897 l 325 897 l 77 844 l 92 740 z "},"2":{"ha":972,"x_min":0,"x_max":0,"o":"m 101 145 l 101 0 l 892 0 l 892 116 l 240 116 l 240 156 b 438 345 240 223 251 283 l 617 406 b 876 669 803 469 876 528 b 533 922 876 845 740 922 b 139 845 358 922 231 881 l 176 726 b 533 800 283 768 402 800 b 733 668 661 800 733 762 b 560 513 733 607 711 565 l 399 457 b 101 145 172 379 101 294 z "},"3":{"ha":965,"x_min":0,"x_max":0,"o":"m 456 -27 b 878 258 701 -27 878 44 b 694 492 878 378 812 468 b 837 683 788 522 837 594 b 492 922 837 876 663 922 b 107 844 324 922 182 874 l 145 730 b 490 801 238 767 374 801 b 694 676 642 801 694 742 b 452 528 694 608 645 528 l 274 528 l 274 413 l 476 413 b 735 252 624 413 735 393 b 465 94 735 154 644 94 b 108 164 322 94 201 126 l 64 47 b 456 -27 151 6 304 -27 z "},"4":{"ha":965,"x_min":0,"x_max":0,"o":"m 636 181 l 636 0 l 770 0 l 770 181 l 933 181 l 933 289 l 770 289 l 770 897 l 583 897 l 58 318 l 58 181 z m 183 289 l 636 783 l 636 289 z "},"5":{"ha":967,"x_min":0,"x_max":0,"o":"m 472 -27 b 864 276 710 -27 864 62 b 526 573 864 502 695 573 b 284 530 404 573 326 544 l 298 783 l 777 783 l 777 897 l 179 897 l 153 465 l 227 399 b 511 454 306 426 385 454 b 722 272 657 454 722 385 b 474 94 722 149 631 94 b 142 164 356 94 238 123 l 102 46 b 472 -27 213 -5 333 -27 z "},"6":{"ha":1032,"x_min":0,"x_max":0,"o":"m 545 -27 b 949 290 862 -27 949 160 b 591 594 949 526 748 594 b 247 475 433 594 319 540 b 579 801 252 641 348 801 b 858 743 688 801 765 778 l 902 859 b 583 922 828 888 728 922 b 109 445 285 922 109 733 b 545 -27 109 115 291 -27 z m 255 352 b 577 474 331 423 440 474 b 805 288 694 474 805 424 b 548 94 805 144 677 94 b 255 352 406 94 286 163 z "},"7":{"ha":820,"x_min":0,"x_max":0,"o":"m 153 42 l 269 -27 l 771 774 l 771 897 l 37 897 l 37 781 l 628 781 z "},"8":{"ha":1051,"x_min":0,"x_max":0,"o":"m 115 223 b 542 -27 115 34 313 -27 b 968 224 763 -27 968 45 b 744 465 968 343 880 428 b 923 666 840 492 923 555 b 542 922 923 828 767 922 b 160 666 319 922 160 828 b 340 456 160 556 235 492 b 115 223 203 423 115 343 z m 259 231 b 542 400 259 342 376 400 b 824 231 708 400 824 342 b 542 85 824 134 695 85 b 259 231 386 85 259 133 z m 304 665 b 542 809 304 756 397 809 b 779 665 685 809 779 756 b 542 510 779 567 663 510 b 304 665 422 510 304 566 z "},"9":{"ha":1042,"x_min":0,"x_max":0,"o":"m 457 -27 b 933 460 779 -27 933 161 b 502 922 933 783 753 922 b 96 589 268 922 96 792 b 443 299 96 370 270 299 b 794 428 605 299 718 352 b 460 94 790 221 672 94 b 165 150 340 94 247 117 l 122 32 b 457 -27 183 3 292 -27 z m 240 592 b 501 801 240 731 354 801 b 788 550 644 801 763 732 b 459 420 715 470 606 420 b 240 592 336 420 240 467 z "}," ":{"ha":361,"x_min":0,"x_max":0,"o":""},"A":{"ha":1147,"x_min":0,"x_max":0,"o":"m 42 31 l 163 -26 l 283 211 l 862 211 l 980 -26 l 1106 37 l 669 896 l 485 896 z m 340 326 l 574 788 l 805 326 z "},"À":{"ha":1147,"x_min":0,"x_max":0,"o":"m 42 31 l 163 -26 l 283 211 l 862 211 l 980 -26 l 1106 37 l 669 896 l 485 896 z m 295 1137 l 588 990 l 644 1082 l 356 1242 z m 340 326 l 574 788 l 805 326 z "},"Á":{"ha":1147,"x_min":0,"x_max":0,"o":"m 42 31 l 163 -26 l 283 211 l 862 211 l 980 -26 l 1106 37 l 669 896 l 485 896 z m 340 326 l 574 788 l 805 326 z m 494 1082 l 551 990 l 842 1137 l 783 1242 z "},"Â":{"ha":1147,"x_min":0,"x_max":0,"o":"m 42 31 l 163 -26 l 283 211 l 862 211 l 980 -26 l 1106 37 l 669 896 l 485 896 z m 333 1062 l 415 985 l 574 1133 l 733 985 l 812 1063 l 630 1219 l 521 1219 z m 340 326 l 574 788 l 805 326 z "},"Ã":{"ha":1147,"x_min":0,"x_max":0,"o":"m 42 31 l 163 -26 l 283 211 l 862 211 l 980 -26 l 1106 37 l 669 896 l 485 896 z m 307 1050 l 397 1009 b 476 1083 417 1053 438 1083 b 564 1041 503 1083 529 1061 b 680 1006 594 1023 631 1006 b 851 1157 749 1006 815 1039 l 758 1192 b 681 1113 735 1134 713 1113 b 592 1147 648 1113 621 1129 b 474 1192 558 1169 522 1192 b 307 1050 399 1192 338 1151 z m 340 326 l 574 788 l 805 326 z "},"Ä":{"ha":1147,"x_min":0,"x_max":0,"o":"m 42 31 l 163 -26 l 283 211 l 862 211 l 980 -26 l 1106 37 l 669 896 l 485 896 z m 340 326 l 574 788 l 805 326 z m 364 1013 l 513 1013 l 513 1155 l 364 1155 z m 640 1013 l 788 1013 l 788 1155 l 640 1155 z "},"Å":{"ha":1147,"x_min":0,"x_max":0,"o":"m 42 31 l 163 -26 l 283 211 l 862 211 l 980 -26 l 1106 37 l 669 896 l 485 896 z m 340 326 l 574 788 l 805 326 z m 399 1123 b 578 969 399 1035 465 969 b 757 1123 685 969 757 1035 b 578 1276 757 1210 684 1276 b 399 1123 471 1276 399 1210 z m 497 1123 b 578 1196 497 1162 526 1196 b 658 1123 630 1196 658 1162 b 578 1050 658 1084 628 1050 b 497 1123 526 1050 497 1084 z "},"Ā":{"ha":1147,"x_min":0,"x_max":0,"o":"m 42 31 l 163 -26 l 283 211 l 862 211 l 980 -26 l 1106 37 l 669 896 l 485 896 z m 340 326 l 574 788 l 805 326 z m 351 1029 l 799 1029 l 799 1137 l 351 1137 z "},"Ă":{"ha":1147,"x_min":0,"x_max":0,"o":"m 42 31 l 163 -26 l 283 211 l 862 211 l 980 -26 l 1106 37 l 669 896 l 485 896 z m 340 326 l 574 788 l 805 326 z m 343 1194 b 574 990 353 1074 426 990 b 803 1194 719 990 792 1078 l 693 1210 b 574 1090 677 1108 625 1090 b 454 1210 524 1090 470 1108 z "},"Ą":{"ha":1152,"x_min":0,"x_max":0,"o":"m 960 -290 b 1123 -263 1031 -290 1098 -272 l 1097 -173 b 969 -194 1055 -186 1008 -194 b 902 -132 937 -194 902 -178 b 1116 26 902 -90 951 -34 l 672 896 l 494 896 l 51 38 l 169 -19 l 287 211 l 867 211 l 947 52 b 785 -143 848 0 785 -62 b 960 -290 785 -237 851 -290 z m 344 322 l 579 784 l 811 322 z "},"Ǻ":{"ha":1147,"x_min":0,"x_max":0,"o":"m 42 31 l 163 -26 l 283 211 l 862 211 l 980 -26 l 1106 37 l 669 896 l 485 896 z m 340 326 l 574 788 l 805 326 z m 387 1346 l 444 1254 l 735 1401 l 676 1506 z m 397 1099 b 576 945 397 1012 463 945 b 756 1099 684 945 756 1012 b 576 1252 756 1187 683 1252 b 397 1099 469 1252 397 1187 z m 496 1099 b 576 1172 496 1138 524 1172 b 656 1099 628 1172 656 1138 b 576 1026 656 1060 626 1026 b 496 1099 524 1026 496 1060 z "},"B":{"ha":1158,"x_min":0,"x_max":0,"o":"m 690 896 l 158 896 l 158 0 l 684 0 b 1053 249 909 0 1053 61 b 865 485 1053 386 963 463 b 1012 667 963 511 1012 582 b 690 896 1012 835 895 896 z m 301 120 l 301 408 l 683 408 b 904 252 844 408 904 338 b 687 120 904 158 828 120 z m 301 525 l 301 776 l 683 776 b 864 653 817 776 864 729 b 660 525 864 580 816 525 z "},"C":{"ha":1122,"x_min":0,"x_max":0,"o":"m 109 438 b 621 -27 109 139 293 -27 b 1031 78 785 -27 917 16 l 974 197 b 631 101 879 145 778 101 b 258 440 385 101 258 224 b 640 794 258 668 403 794 b 961 717 763 794 856 760 l 1011 842 b 642 922 919 882 796 922 b 109 438 355 922 109 775 z "},"Ç":{"ha":1122,"x_min":0,"x_max":0,"o":"m 109 438 b 576 -26 109 153 276 -12 b 674 -134 657 -65 674 -104 b 594 -195 674 -176 642 -195 b 469 -173 560 -195 509 -186 l 444 -263 b 600 -290 471 -273 533 -290 b 790 -143 719 -290 790 -237 b 738 -19 790 -97 774 -55 b 1031 78 849 -5 945 31 l 974 197 b 631 101 879 145 778 101 b 258 440 385 101 258 224 b 640 794 258 668 403 794 b 961 717 763 794 856 760 l 1011 842 b 642 922 919 882 796 922 b 109 438 355 922 109 775 z "},"Ć":{"ha":1122,"x_min":0,"x_max":0,"o":"m 109 438 b 621 -27 109 139 293 -27 b 1031 78 785 -27 917 16 l 974 197 b 631 101 879 145 778 101 b 258 440 385 101 258 224 b 640 794 258 668 403 794 b 961 717 763 794 856 760 l 1011 842 b 642 922 919 882 796 922 b 109 438 355 922 109 775 z m 498 1083 l 555 991 l 847 1138 l 787 1242 z "},"Ĉ":{"ha":1122,"x_min":0,"x_max":0,"o":"m 109 438 b 621 -27 109 139 293 -27 b 1031 78 785 -27 917 16 l 974 197 b 631 101 879 145 778 101 b 258 440 385 101 258 224 b 640 794 258 668 403 794 b 961 717 763 794 856 760 l 1011 842 b 642 922 919 882 796 922 b 109 438 355 922 109 775 z m 378 1062 l 460 985 l 619 1133 l 778 985 l 857 1063 l 675 1219 l 566 1219 z "},"Ċ":{"ha":1122,"x_min":0,"x_max":0,"o":"m 109 438 b 621 -27 109 139 293 -27 b 1031 78 785 -27 917 16 l 974 197 b 631 101 879 145 778 101 b 258 440 385 101 258 224 b 640 794 258 668 403 794 b 961 717 763 794 856 760 l 1011 842 b 642 922 919 882 796 922 b 109 438 355 922 109 775 z m 546 1013 l 695 1013 l 695 1155 l 546 1155 z "},"Č":{"ha":1122,"x_min":0,"x_max":0,"o":"m 109 438 b 621 -27 109 139 293 -27 b 1031 78 785 -27 917 16 l 974 197 b 631 101 879 145 778 101 b 258 440 385 101 258 224 b 640 794 258 668 403 794 b 961 717 763 794 856 760 l 1011 842 b 642 922 919 882 796 922 b 109 438 355 922 109 775 z m 385 1173 l 568 1018 l 677 1018 l 864 1175 l 786 1251 l 626 1103 l 469 1251 z "},"D":{"ha":1203,"x_min":0,"x_max":0,"o":"m 562 897 l 158 897 l 158 0 l 557 0 b 1094 440 912 0 1094 124 b 562 897 1094 744 930 897 z m 301 122 l 301 774 l 570 774 b 945 441 851 774 945 644 b 578 122 945 254 858 122 z "},"Ď":{"ha":1203,"x_min":0,"x_max":0,"o":"m 562 897 l 158 897 l 158 0 l 557 0 b 1094 440 912 0 1094 124 b 562 897 1094 744 930 897 z m 301 122 l 301 774 l 570 774 b 945 441 851 774 945 644 b 578 122 945 254 858 122 z m 335 1173 l 517 1018 l 626 1018 l 813 1175 l 735 1251 l 576 1103 l 418 1251 z "},"E":{"ha":1051,"x_min":0,"x_max":0,"o":"m 158 896 l 158 0 l 973 0 l 973 121 l 301 121 l 301 394 l 860 394 l 860 514 l 301 514 l 301 775 l 958 775 l 958 896 z "},"È":{"ha":1051,"x_min":0,"x_max":0,"o":"m 158 896 l 158 0 l 973 0 l 973 121 l 301 121 l 301 394 l 860 394 l 860 514 l 301 514 l 301 775 l 958 775 l 958 896 z m 349 1137 l 642 990 l 698 1082 l 410 1242 z "},"É":{"ha":1051,"x_min":0,"x_max":0,"o":"m 158 896 l 158 0 l 973 0 l 973 121 l 301 121 l 301 394 l 860 394 l 860 514 l 301 514 l 301 775 l 958 775 l 958 896 z m 443 1082 l 500 990 l 792 1137 l 732 1242 z "},"Ê":{"ha":1051,"x_min":0,"x_max":0,"o":"m 158 896 l 158 0 l 973 0 l 973 121 l 301 121 l 301 394 l 860 394 l 860 514 l 301 514 l 301 775 l 958 775 l 958 896 z m 324 1062 l 406 985 l 565 1133 l 724 985 l 803 1063 l 621 1219 l 512 1219 z "},"Ë":{"ha":1051,"x_min":0,"x_max":0,"o":"m 158 896 l 158 0 l 973 0 l 973 121 l 301 121 l 301 394 l 860 394 l 860 514 l 301 514 l 301 775 l 958 775 l 958 896 z m 365 1013 l 514 1013 l 514 1155 l 365 1155 z m 640 1013 l 789 1013 l 789 1155 l 640 1155 z "},"Ē":{"ha":1051,"x_min":0,"x_max":0,"o":"m 158 896 l 158 0 l 973 0 l 973 121 l 301 121 l 301 394 l 860 394 l 860 514 l 301 514 l 301 775 l 958 775 l 958 896 z m 351 1029 l 799 1029 l 799 1137 l 351 1137 z "},"Ĕ":{"ha":1051,"x_min":0,"x_max":0,"o":"m 158 896 l 158 0 l 973 0 l 973 121 l 301 121 l 301 394 l 860 394 l 860 514 l 301 514 l 301 775 l 958 775 l 958 896 z m 347 1194 b 577 990 356 1074 429 990 b 807 1194 723 990 796 1078 l 697 1210 b 577 1090 681 1108 628 1090 b 458 1210 528 1090 474 1108 z "},"Ė":{"ha":1051,"x_min":0,"x_max":0,"o":"m 158 896 l 158 0 l 973 0 l 973 121 l 301 121 l 301 394 l 860 394 l 860 514 l 301 514 l 301 775 l 958 775 l 958 896 z m 506 1013 l 656 1013 l 656 1155 l 506 1155 z "},"Ę":{"ha":1051,"x_min":0,"x_max":0,"o":"m 843 -290 b 990 -263 907 -290 968 -272 l 966 -173 b 852 -194 928 -186 886 -194 b 789 -133 819 -194 789 -178 b 970 0 789 -96 831 -48 l 973 0 l 973 121 l 301 121 l 301 394 l 860 394 l 860 514 l 301 514 l 301 775 l 958 775 l 958 896 l 158 896 l 158 0 l 773 0 b 672 -143 704 -39 672 -86 b 843 -290 672 -238 737 -290 z "},"Ě":{"ha":1051,"x_min":0,"x_max":0,"o":"m 158 896 l 158 0 l 973 0 l 973 121 l 301 121 l 301 394 l 860 394 l 860 514 l 301 514 l 301 775 l 958 775 l 958 896 z m 338 1173 l 520 1018 l 629 1018 l 816 1175 l 738 1251 l 578 1103 l 421 1251 z "},"F":{"ha":985,"x_min":0,"x_max":0,"o":"m 158 896 l 158 0 l 301 0 l 301 356 l 819 356 l 819 476 l 301 476 l 301 775 l 935 775 l 935 896 z "},"G":{"ha":1192,"x_min":0,"x_max":0,"o":"m 109 444 b 627 -27 109 118 325 -27 b 1056 67 825 -27 969 30 l 1056 476 l 590 476 l 590 353 l 913 353 l 913 156 b 638 101 846 131 766 101 b 258 443 405 101 258 205 b 647 794 258 676 419 794 b 982 718 733 794 848 774 l 1028 844 b 645 922 914 890 792 922 b 109 444 365 922 109 777 z "},"Ĝ":{"ha":1192,"x_min":0,"x_max":0,"o":"m 109 444 b 627 -27 109 118 325 -27 b 1056 67 825 -27 969 30 l 1056 476 l 590 476 l 590 353 l 913 353 l 913 156 b 638 101 846 131 766 101 b 258 443 405 101 258 205 b 647 794 258 676 419 794 b 982 718 733 794 848 774 l 1028 844 b 645 922 914 890 792 922 b 109 444 365 922 109 777 z m 391 1062 l 472 985 l 631 1133 l 790 985 l 869 1063 l 688 1219 l 578 1219 z "},"Ğ":{"ha":1192,"x_min":0,"x_max":0,"o":"m 109 444 b 627 -27 109 118 325 -27 b 1056 67 825 -27 969 30 l 1056 476 l 590 476 l 590 353 l 913 353 l 913 156 b 638 101 846 131 766 101 b 258 443 405 101 258 205 b 647 794 258 676 419 794 b 982 718 733 794 848 774 l 1028 844 b 645 922 914 890 792 922 b 109 444 365 922 109 777 z m 394 1194 b 624 990 403 1074 476 990 b 854 1194 770 990 843 1078 l 744 1210 b 624 1090 728 1108 676 1090 b 505 1210 575 1090 521 1108 z "},"Ġ":{"ha":1192,"x_min":0,"x_max":0,"o":"m 109 444 b 627 -27 109 118 325 -27 b 1056 67 825 -27 969 30 l 1056 476 l 590 476 l 590 353 l 913 353 l 913 156 b 638 101 846 131 766 101 b 258 443 405 101 258 205 b 647 794 258 676 419 794 b 982 718 733 794 848 774 l 1028 844 b 645 922 914 890 792 922 b 109 444 365 922 109 777 z m 548 1013 l 697 1013 l 697 1155 l 548 1155 z "},"Ģ":{"ha":1192,"x_min":0,"x_max":0,"o":"m 109 444 b 627 -27 109 118 325 -27 b 1056 67 825 -27 969 30 l 1056 476 l 590 476 l 590 353 l 913 353 l 913 156 b 638 101 846 131 766 101 b 258 443 405 101 258 205 b 647 794 258 676 419 794 b 982 718 733 794 848 774 l 1028 844 b 645 922 914 890 792 922 b 109 444 365 922 109 777 z m 550 -234 l 600 -234 l 551 -376 l 614 -404 l 703 -239 l 703 -90 l 550 -90 z "},"H":{"ha":1283,"x_min":0,"x_max":0,"o":"m 158 896 l 158 0 l 301 0 l 301 383 l 981 383 l 981 0 l 1124 0 l 1124 896 l 981 896 l 981 505 l 301 505 l 301 896 z "},"Ĥ":{"ha":1283,"x_min":0,"x_max":0,"o":"m 158 896 l 158 0 l 301 0 l 301 383 l 981 383 l 981 0 l 1124 0 l 1124 896 l 981 896 l 981 505 l 301 505 l 301 896 z m 413 1062 l 494 985 l 653 1133 l 813 985 l 892 1063 l 710 1219 l 601 1219 z "},"I":{"ha":460,"x_min":0,"x_max":0,"o":"m 158 896 l 158 0 l 301 0 l 301 896 z "},"Ì":{"ha":460,"x_min":0,"x_max":0,"o":"m 158 896 l 158 0 l 301 0 l 301 896 z m -51 1137 l 241 990 l 297 1082 l 9 1242 z "},"Í":{"ha":460,"x_min":0,"x_max":0,"o":"m 158 896 l 158 0 l 301 0 l 301 896 z m 146 1082 l 203 990 l 494 1137 l 435 1242 z "},"Î":{"ha":460,"x_min":0,"x_max":0,"o":"m 158 896 l 158 0 l 301 0 l 301 896 z m -15 1062 l 67 985 l 226 1133 l 385 985 l 464 1063 l 282 1219 l 173 1219 z "},"Ï":{"ha":460,"x_min":0,"x_max":0,"o":"m 158 896 l 158 0 l 301 0 l 301 896 z m 17 1013 l 166 1013 l 166 1155 l 17 1155 z m 292 1013 l 441 1013 l 441 1155 l 292 1155 z "},"Ĩ":{"ha":460,"x_min":0,"x_max":0,"o":"m 158 896 l 158 0 l 301 0 l 301 896 z m -45 1050 l 44 1009 b 124 1083 65 1053 85 1083 b 212 1041 151 1083 177 1061 b 328 1006 242 1023 278 1006 b 499 1157 397 1006 463 1039 l 406 1192 b 328 1113 383 1134 361 1113 b 240 1147 296 1113 269 1129 b 122 1192 206 1169 170 1192 b -45 1050 47 1192 -14 1151 z "},"Ī":{"ha":460,"x_min":0,"x_max":0,"o":"m 158 896 l 158 0 l 301 0 l 301 896 z m 3 1029 l 451 1029 l 451 1137 l 3 1137 z "},"Ĭ":{"ha":460,"x_min":0,"x_max":0,"o":"m 158 896 l 158 0 l 301 0 l 301 896 z m -2 1194 b 228 990 8 1074 81 990 b 458 1194 374 990 447 1078 l 348 1210 b 228 1090 332 1108 280 1090 b 109 1210 179 1090 125 1108 z "},"Į":{"ha":456,"x_min":0,"x_max":0,"o":"m 212 -290 b 375 -263 281 -290 350 -272 l 349 -173 b 221 -194 307 -186 259 -194 b 153 -131 188 -194 153 -174 b 297 0 153 -94 183 -49 l 297 896 l 154 896 l 154 17 b 37 -149 78 -27 37 -79 b 212 -290 37 -238 99 -290 z "},"İ":{"ha":460,"x_min":0,"x_max":0,"o":"m 158 896 l 158 0 l 301 0 l 301 896 z m 154 1013 l 303 1013 l 303 1155 l 154 1155 z "},"J":{"ha":897,"x_min":0,"x_max":0,"o":"m 84 185 l 26 68 b 367 -27 94 19 211 -27 b 759 332 554 -27 759 31 l 759 897 l 616 897 l 616 336 b 370 100 616 149 500 100 b 84 185 239 100 151 143 z "},"Ĵ":{"ha":897,"x_min":0,"x_max":0,"o":"m 84 185 l 26 68 b 367 -27 94 19 211 -27 b 759 332 554 -27 759 31 l 759 897 l 616 897 l 616 336 b 370 100 616 149 500 100 b 84 185 239 100 151 143 z m 444 1062 l 526 985 l 685 1133 l 844 985 l 923 1063 l 741 1219 l 632 1219 z "},"K":{"ha":1181,"x_min":0,"x_max":0,"o":"m 643 447 l 1023 -26 l 1131 60 l 748 534 l 1091 823 l 1006 919 l 301 323 l 301 896 l 158 896 l 158 0 l 301 0 l 301 158 z "},"Ķ":{"ha":1181,"x_min":0,"x_max":0,"o":"m 643 447 l 1023 -26 l 1131 60 l 748 534 l 1091 823 l 1006 919 l 301 323 l 301 896 l 158 896 l 158 0 l 301 0 l 301 158 z m 541 -232 l 591 -232 l 542 -374 l 605 -402 l 694 -237 l 694 -87 l 541 -87 z "},"L":{"ha":947,"x_min":0,"x_max":0,"o":"m 158 896 l 158 0 l 931 0 l 931 123 l 301 123 l 301 896 z "},"Ĺ":{"ha":947,"x_min":0,"x_max":0,"o":"m 158 896 l 158 0 l 931 0 l 931 123 l 301 123 l 301 896 z m 151 1082 l 208 990 l 500 1137 l 440 1242 z "},"Ļ":{"ha":947,"x_min":0,"x_max":0,"o":"m 158 896 l 158 0 l 931 0 l 931 123 l 301 123 l 301 896 z m 465 -234 l 515 -234 l 466 -376 l 529 -404 l 618 -239 l 618 -90 l 465 -90 z "},"Ľ":{"ha":947,"x_min":0,"x_max":0,"o":"m 158 896 l 158 0 l 931 0 l 931 123 l 301 123 l 301 896 z m 585 607 l 707 590 l 761 891 l 621 910 z "},"M":{"ha":1447,"x_min":0,"x_max":0,"o":"m 158 896 l 158 0 l 296 0 l 296 755 l 640 99 l 819 99 l 1151 761 l 1151 0 l 1288 0 l 1288 896 l 1072 896 l 733 211 l 382 896 z "},"N":{"ha":1238,"x_min":0,"x_max":0,"o":"m 158 896 l 158 0 l 298 0 l 298 731 l 890 0 l 1079 0 l 1079 896 l 940 896 l 940 153 l 346 896 z "},"Ñ":{"ha":1238,"x_min":0,"x_max":0,"o":"m 158 896 l 158 0 l 298 0 l 298 731 l 890 0 l 1079 0 l 1079 896 l 940 896 l 940 153 l 346 896 z m 372 1050 l 462 1009 b 541 1083 482 1053 503 1083 b 629 1041 569 1083 594 1061 b 745 1006 659 1023 696 1006 b 916 1157 815 1006 880 1039 l 823 1192 b 746 1113 801 1134 778 1113 b 657 1147 713 1113 686 1129 b 539 1192 623 1169 588 1192 b 372 1050 465 1192 403 1151 z "},"Ń":{"ha":1238,"x_min":0,"x_max":0,"o":"m 158 896 l 158 0 l 298 0 l 298 731 l 890 0 l 1079 0 l 1079 896 l 940 896 l 940 153 l 346 896 z m 534 1082 l 591 990 l 883 1137 l 823 1242 z "},"Ņ":{"ha":1238,"x_min":0,"x_max":0,"o":"m 158 896 l 158 0 l 298 0 l 298 731 l 890 0 l 1079 0 l 1079 896 l 940 896 l 940 153 l 346 896 z m 553 -234 l 603 -234 l 554 -376 l 617 -404 l 706 -239 l 706 -90 l 553 -90 z "},"Ň":{"ha":1238,"x_min":0,"x_max":0,"o":"m 158 896 l 158 0 l 298 0 l 298 731 l 890 0 l 1079 0 l 1079 896 l 940 896 l 940 153 l 346 896 z m 408 1173 l 590 1018 l 699 1018 l 886 1175 l 808 1251 l 649 1103 l 491 1251 z "},"O":{"ha":1299,"x_min":0,"x_max":0,"o":"m 109 442 b 644 -27 109 106 349 -27 b 1190 446 938 -27 1190 114 b 653 922 1190 775 935 922 b 109 442 383 922 109 782 z m 259 444 b 649 794 259 683 431 794 b 1040 444 865 794 1040 683 b 642 101 1040 206 868 101 b 259 444 422 101 259 207 z "},"Ò":{"ha":1299,"x_min":0,"x_max":0,"o":"m 109 442 b 644 -27 109 106 349 -27 b 1190 446 938 -27 1190 114 b 653 922 1190 775 935 922 b 109 442 383 922 109 782 z m 259 444 b 649 794 259 683 431 794 b 1040 444 865 794 1040 683 b 642 101 1040 206 868 101 b 259 444 422 101 259 207 z m 449 1137 l 741 990 l 797 1082 l 509 1242 z "},"Ó":{"ha":1299,"x_min":0,"x_max":0,"o":"m 109 442 b 644 -27 109 106 349 -27 b 1190 446 938 -27 1190 114 b 653 922 1190 775 935 922 b 109 442 383 922 109 782 z m 259 444 b 649 794 259 683 431 794 b 1040 444 865 794 1040 683 b 642 101 1040 206 868 101 b 259 444 422 101 259 207 z m 552 1082 l 609 990 l 901 1137 l 841 1242 z "},"Ô":{"ha":1299,"x_min":0,"x_max":0,"o":"m 109 442 b 644 -27 109 106 349 -27 b 1190 446 938 -27 1190 114 b 653 922 1190 775 935 922 b 109 442 383 922 109 782 z m 259 444 b 649 794 259 683 431 794 b 1040 444 865 794 1040 683 b 642 101 1040 206 868 101 b 259 444 422 101 259 207 z m 410 1062 l 491 985 l 650 1133 l 809 985 l 888 1063 l 706 1219 l 597 1219 z "},"Õ":{"ha":1299,"x_min":0,"x_max":0,"o":"m 109 442 b 644 -27 109 106 349 -27 b 1190 446 938 -27 1190 114 b 653 922 1190 775 935 922 b 109 442 383 922 109 782 z m 259 444 b 649 794 259 683 431 794 b 1040 444 865 794 1040 683 b 642 101 1040 206 868 101 b 259 444 422 101 259 207 z m 374 1050 l 464 1009 b 543 1083 484 1053 505 1083 b 631 1041 571 1083 597 1061 b 747 1006 661 1023 698 1006 b 918 1157 817 1006 882 1039 l 825 1192 b 748 1113 803 1134 781 1113 b 659 1147 715 1113 688 1129 b 541 1192 625 1169 590 1192 b 374 1050 467 1192 406 1151 z "},"Ö":{"ha":1299,"x_min":0,"x_max":0,"o":"m 109 442 b 644 -27 109 106 349 -27 b 1190 446 938 -27 1190 114 b 653 922 1190 775 935 922 b 109 442 383 922 109 782 z m 259 444 b 649 794 259 683 431 794 b 1040 444 865 794 1040 683 b 642 101 1040 206 868 101 b 259 444 422 101 259 207 z m 434 1013 l 583 1013 l 583 1155 l 434 1155 z m 710 1013 l 858 1013 l 858 1155 l 710 1155 z "},"Ō":{"ha":1299,"x_min":0,"x_max":0,"o":"m 109 442 b 644 -27 109 106 349 -27 b 1190 446 938 -27 1190 114 b 653 922 1190 775 935 922 b 109 442 383 922 109 782 z m 259 444 b 649 794 259 683 431 794 b 1040 444 865 794 1040 683 b 642 101 1040 206 868 101 b 259 444 422 101 259 207 z m 426 1029 l 874 1029 l 874 1137 l 426 1137 z "},"Ŏ":{"ha":1299,"x_min":0,"x_max":0,"o":"m 109 442 b 644 -27 109 106 349 -27 b 1190 446 938 -27 1190 114 b 653 922 1190 775 935 922 b 109 442 383 922 109 782 z m 259 444 b 649 794 259 683 431 794 b 1040 444 865 794 1040 683 b 642 101 1040 206 868 101 b 259 444 422 101 259 207 z m 421 1194 b 651 990 431 1074 503 990 b 881 1194 797 990 870 1078 l 771 1210 b 651 1090 755 1108 703 1090 b 532 1210 602 1090 548 1108 z "},"Ő":{"ha":1299,"x_min":0,"x_max":0,"o":"m 109 442 b 644 -27 109 106 349 -27 b 1190 446 938 -27 1190 114 b 653 922 1190 775 935 922 b 109 442 383 922 109 782 z m 259 444 b 649 794 259 683 431 794 b 1040 444 865 794 1040 683 b 642 101 1040 206 868 101 b 259 444 422 101 259 207 z m 416 1058 l 501 985 l 720 1201 l 629 1287 z m 710 1073 l 786 992 l 1026 1187 l 944 1279 z "},"P":{"ha":1113,"x_min":0,"x_max":0,"o":"m 688 896 l 158 896 l 158 0 l 301 0 l 301 232 l 674 232 b 1062 553 926 232 1062 332 b 688 896 1062 781 931 896 z m 301 354 l 301 774 l 690 774 b 913 554 832 774 913 699 b 678 354 913 431 856 354 z "},"Q":{"ha":1299,"x_min":0,"x_max":0,"o":"m 648 290 l 749 110 b 642 101 715 103 679 101 b 259 444 422 101 259 207 b 649 794 259 683 431 794 b 1040 444 865 794 1040 683 b 875 151 1040 299 976 203 l 761 353 z m 109 442 b 644 -27 109 106 349 -27 b 815 -9 703 -27 761 -22 l 918 -193 l 1031 -128 l 941 33 b 1190 446 1089 103 1190 236 b 653 922 1190 775 935 922 b 109 442 383 922 109 782 z "},"R":{"ha":1188,"x_min":0,"x_max":0,"o":"m 807 281 l 947 -26 l 1074 33 l 938 326 b 1076 575 1026 374 1076 457 b 705 896 1076 785 940 896 l 158 896 l 158 0 l 301 0 l 301 271 l 675 271 b 807 281 723 271 767 274 z m 301 393 l 301 774 l 694 774 b 928 576 844 774 928 712 b 683 393 928 466 869 393 z "},"Ŕ":{"ha":1188,"x_min":0,"x_max":0,"o":"m 807 281 l 947 -26 l 1074 33 l 938 326 b 1076 575 1026 374 1076 457 b 705 896 1076 785 940 896 l 158 896 l 158 0 l 301 0 l 301 271 l 675 271 b 807 281 723 271 767 274 z m 301 393 l 301 774 l 694 774 b 928 576 844 774 928 712 b 683 393 928 466 869 393 z m 451 1082 l 508 990 l 800 1137 l 740 1242 z "},"Ŗ":{"ha":1188,"x_min":0,"x_max":0,"o":"m 807 281 l 947 -26 l 1074 33 l 938 326 b 1076 575 1026 374 1076 457 b 705 896 1076 785 940 896 l 158 896 l 158 0 l 301 0 l 301 271 l 675 271 b 807 281 723 271 767 274 z m 301 393 l 301 774 l 694 774 b 928 576 844 774 928 712 b 683 393 928 466 869 393 z m 527 -234 l 577 -234 l 528 -376 l 591 -404 l 680 -239 l 680 -90 l 527 -90 z "},"Ř":{"ha":1188,"x_min":0,"x_max":0,"o":"m 807 281 l 947 -26 l 1074 33 l 938 326 b 1076 575 1026 374 1076 457 b 705 896 1076 785 940 896 l 158 896 l 158 0 l 301 0 l 301 271 l 675 271 b 807 281 723 271 767 274 z m 301 393 l 301 774 l 694 774 b 928 576 844 774 928 712 b 683 393 928 466 869 393 z m 359 1173 l 542 1018 l 651 1018 l 838 1175 l 760 1251 l 600 1103 l 442 1251 z "},"S":{"ha":1094,"x_min":0,"x_max":0,"o":"m 157 183 l 109 58 b 526 -27 208 9 355 -27 b 998 269 831 -27 998 57 b 622 529 998 486 807 517 b 272 656 444 540 272 535 b 557 795 272 749 359 795 b 898 739 687 795 792 771 l 939 860 b 554 921 850 890 707 921 b 129 650 334 921 129 849 b 526 397 129 427 333 407 b 860 260 697 388 860 388 b 531 100 860 144 744 100 b 157 183 386 100 258 134 z "},"Ś":{"ha":1094,"x_min":0,"x_max":0,"o":"m 157 183 l 109 58 b 526 -27 208 9 355 -27 b 998 269 831 -27 998 57 b 622 529 998 486 807 517 b 272 656 444 540 272 535 b 557 795 272 749 359 795 b 898 739 687 795 792 771 l 939 860 b 554 921 850 890 707 921 b 129 650 334 921 129 849 b 526 397 129 427 333 407 b 860 260 697 388 860 388 b 531 100 860 144 744 100 b 157 183 386 100 258 134 z m 446 1082 l 503 990 l 794 1137 l 735 1242 z "},"Ŝ":{"ha":1094,"x_min":0,"x_max":0,"o":"m 157 183 l 109 58 b 526 -27 208 9 355 -27 b 998 269 831 -27 998 57 b 622 529 998 486 807 517 b 272 656 444 540 272 535 b 557 795 272 749 359 795 b 898 739 687 795 792 771 l 939 860 b 554 921 850 890 707 921 b 129 650 334 921 129 849 b 526 397 129 427 333 407 b 860 260 697 388 860 388 b 531 100 860 144 744 100 b 157 183 386 100 258 134 z m 313 1062 l 394 985 l 553 1133 l 713 985 l 792 1063 l 610 1219 l 501 1219 z "},"Ş":{"ha":1094,"x_min":0,"x_max":0,"o":"m 157 183 l 109 58 b 520 -27 208 10 352 -26 b 615 -134 599 -66 615 -104 b 536 -195 615 -176 583 -195 b 411 -173 501 -195 451 -186 l 385 -263 b 542 -290 413 -273 474 -290 b 731 -143 660 -290 731 -237 b 678 -19 731 -96 715 -54 b 998 269 885 8 998 96 b 622 529 998 486 807 517 b 272 656 444 540 272 535 b 557 795 272 749 359 795 b 898 739 687 795 792 771 l 939 860 b 554 921 850 890 707 921 b 129 650 334 921 129 849 b 526 397 129 427 333 407 b 860 260 697 388 860 388 b 531 100 860 144 744 100 b 157 183 386 100 258 134 z "},"Š":{"ha":1094,"x_min":0,"x_max":0,"o":"m 157 183 l 109 58 b 526 -27 208 9 355 -27 b 998 269 831 -27 998 57 b 622 529 998 486 807 517 b 272 656 444 540 272 535 b 557 795 272 749 359 795 b 898 739 687 795 792 771 l 939 860 b 554 921 850 890 707 921 b 129 650 334 921 129 849 b 526 397 129 427 333 407 b 860 260 697 388 860 388 b 531 100 860 144 744 100 b 157 183 386 100 258 134 z m 320 1173 l 503 1018 l 612 1018 l 799 1175 l 721 1251 l 561 1103 l 403 1251 z "},"Ș":{"ha":1094,"x_min":0,"x_max":0,"o":"m 487 -376 l 550 -404 l 639 -239 l 639 -90 l 486 -90 l 486 -234 l 536 -234 z m 109 58 b 526 -27 208 9 355 -27 b 998 269 831 -27 998 57 b 622 529 998 486 807 517 b 272 656 444 540 272 535 b 557 795 272 749 359 795 b 898 739 687 795 792 771 l 939 860 b 554 921 850 890 707 921 b 129 650 334 921 129 849 b 526 397 129 427 333 407 b 860 260 697 388 860 388 b 531 100 860 144 744 100 b 157 183 386 100 258 134 z "},"T":{"ha":1010,"x_min":0,"x_max":0,"o":"m 422 773 l 422 0 l 565 0 l 565 773 l 988 773 l 988 896 l 22 896 l 22 773 z "},"Ţ":{"ha":1010,"x_min":0,"x_max":0,"o":"m 418 -376 l 481 -404 l 570 -239 l 570 -90 l 417 -90 l 417 -234 l 467 -234 z m 22 773 l 422 773 l 422 0 l 565 0 l 565 773 l 988 773 l 988 896 l 22 896 z "},"Ť":{"ha":1010,"x_min":0,"x_max":0,"o":"m 251 1175 l 434 1020 l 543 1020 l 730 1177 l 652 1253 l 492 1106 l 335 1253 z m 22 773 l 422 773 l 422 0 l 565 0 l 565 773 l 988 773 l 988 896 l 22 896 z "},"U":{"ha":1185,"x_min":0,"x_max":0,"o":"m 138 408 b 592 -27 138 28 399 -27 b 1047 409 782 -27 1047 37 l 1047 897 l 904 896 l 904 415 b 594 101 904 165 757 101 b 281 415 430 101 281 165 l 281 896 l 138 897 z "},"Ù":{"ha":1185,"x_min":0,"x_max":0,"o":"m 138 408 b 592 -27 138 28 399 -27 b 1047 409 782 -27 1047 37 l 1047 897 l 904 896 l 904 415 b 594 101 904 165 757 101 b 281 415 430 101 281 165 l 281 896 l 138 897 z m 351 1137 l 644 990 l 700 1082 l 412 1242 z "},"Ú":{"ha":1185,"x_min":0,"x_max":0,"o":"m 469 1082 l 526 990 l 818 1137 l 758 1242 z m 138 408 b 592 -27 138 28 399 -27 b 1047 409 782 -27 1047 37 l 1047 897 l 904 896 l 904 415 b 594 101 904 165 757 101 b 281 415 430 101 281 165 l 281 896 l 138 897 z "},"Û":{"ha":1185,"x_min":0,"x_max":0,"o":"m 367 1062 l 448 985 l 607 1133 l 766 985 l 845 1063 l 663 1219 l 554 1219 z m 138 408 b 592 -27 138 28 399 -27 b 1047 409 782 -27 1047 37 l 1047 897 l 904 896 l 904 415 b 594 101 904 165 757 101 b 281 415 430 101 281 165 l 281 896 l 138 897 z "},"Ü":{"ha":1185,"x_min":0,"x_max":0,"o":"m 384 1155 l 384 1013 l 533 1013 l 533 1155 z m 138 408 b 592 -27 138 28 399 -27 b 1047 409 782 -27 1047 37 l 1047 897 l 904 896 l 904 415 b 594 101 904 165 757 101 b 281 415 430 101 281 165 l 281 896 l 138 897 z m 660 1013 l 808 1013 l 808 1155 l 660 1155 z "},"Ũ":{"ha":1185,"x_min":0,"x_max":0,"o":"m 138 408 b 592 -27 138 28 399 -27 b 1047 409 782 -27 1047 37 l 1047 897 l 904 896 l 904 415 b 594 101 904 165 757 101 b 281 415 430 101 281 165 l 281 896 l 138 897 z m 331 1050 l 421 1009 b 500 1083 441 1053 462 1083 b 588 1041 528 1083 553 1061 b 704 1006 618 1023 655 1006 b 875 1157 774 1006 839 1039 l 782 1192 b 705 1113 760 1134 738 1113 b 616 1147 672 1113 645 1129 b 498 1192 582 1169 547 1192 b 331 1050 424 1192 363 1151 z "},"Ū":{"ha":1185,"x_min":0,"x_max":0,"o":"m 138 408 b 592 -27 138 28 399 -27 b 1047 409 782 -27 1047 37 l 1047 897 l 904 896 l 904 415 b 594 101 904 165 757 101 b 281 415 430 101 281 165 l 281 896 l 138 897 z m 371 1029 l 818 1029 l 818 1137 l 371 1137 z "},"Ŭ":{"ha":1185,"x_min":0,"x_max":0,"o":"m 138 408 b 592 -27 138 28 399 -27 b 1047 409 782 -27 1047 37 l 1047 897 l 904 896 l 904 415 b 594 101 904 165 757 101 b 281 415 430 101 281 165 l 281 896 l 138 897 z m 375 1194 b 606 990 385 1074 458 990 b 835 1194 751 990 824 1078 l 725 1210 b 606 1090 709 1108 657 1090 b 486 1210 556 1090 502 1108 z "},"Ů":{"ha":1185,"x_min":0,"x_max":0,"o":"m 427 1123 b 606 969 427 1035 493 969 b 785 1123 714 969 785 1035 b 606 1276 785 1210 713 1276 b 427 1123 499 1276 427 1210 z m 138 408 b 592 -27 138 28 399 -27 b 1047 409 782 -27 1047 37 l 1047 897 l 904 896 l 904 415 b 594 101 904 165 757 101 b 281 415 430 101 281 165 l 281 896 l 138 897 z m 526 1123 b 606 1196 526 1162 554 1196 b 686 1123 658 1196 686 1162 b 606 1050 686 1084 656 1050 b 526 1123 554 1050 526 1084 z "},"Ű":{"ha":1185,"x_min":0,"x_max":0,"o":"m 138 408 b 592 -27 138 28 399 -27 b 1047 409 782 -27 1047 37 l 1047 897 l 904 896 l 904 415 b 594 101 904 165 757 101 b 281 415 430 101 281 165 l 281 896 l 138 897 z m 367 1058 l 451 985 l 671 1201 l 580 1287 z m 660 1073 l 737 992 l 977 1187 l 894 1279 z "},"Ų":{"ha":1194,"x_min":0,"x_max":0,"o":"m 484 -143 b 658 -290 484 -237 550 -290 b 822 -263 729 -290 797 -272 l 796 -173 b 668 -194 753 -186 706 -194 b 601 -133 635 -194 601 -178 b 719 -16 601 -100 629 -60 b 1047 409 882 13 1047 115 l 1047 897 l 904 896 l 904 415 b 594 101 904 165 757 101 b 281 415 430 101 281 165 l 281 896 l 138 897 l 138 408 b 536 -26 138 65 352 -14 b 484 -143 503 -60 484 -98 z "},"V":{"ha":1099,"x_min":0,"x_max":0,"o":"m 33 849 l 460 0 l 647 0 l 1071 862 l 941 920 l 557 122 l 162 919 z "},"W":{"ha":1533,"x_min":0,"x_max":0,"o":"m 58 877 l 350 0 l 538 0 l 767 771 l 1007 0 l 1197 0 l 1474 883 l 1346 919 l 1102 125 l 865 896 l 670 896 l 447 135 l 193 919 z "},"Ŵ":{"ha":1533,"x_min":0,"x_max":0,"o":"m 525 1062 l 606 985 l 765 1133 l 924 985 l 1003 1063 l 822 1219 l 713 1219 z m 58 877 l 350 0 l 538 0 l 767 771 l 1007 0 l 1197 0 l 1474 883 l 1346 919 l 1102 125 l 865 896 l 670 896 l 447 135 l 193 919 z "},"Ẁ":{"ha":1533,"x_min":0,"x_max":0,"o":"m 58 877 l 350 0 l 538 0 l 767 771 l 1007 0 l 1197 0 l 1474 883 l 1346 919 l 1102 125 l 865 896 l 670 896 l 447 135 l 193 919 z m 515 1137 l 808 990 l 864 1082 l 576 1242 z "},"Ẃ":{"ha":1533,"x_min":0,"x_max":0,"o":"m 676 1082 l 733 990 l 1024 1137 l 965 1242 z m 58 877 l 350 0 l 538 0 l 767 771 l 1007 0 l 1197 0 l 1474 883 l 1346 919 l 1102 125 l 865 896 l 670 896 l 447 135 l 193 919 z "},"Ẅ":{"ha":1533,"x_min":0,"x_max":0,"o":"m 560 1155 l 560 1013 l 709 1013 l 709 1155 z m 58 877 l 350 0 l 538 0 l 767 771 l 1007 0 l 1197 0 l 1474 883 l 1346 919 l 1102 125 l 865 896 l 670 896 l 447 135 l 193 919 z m 835 1013 l 984 1013 l 984 1155 l 835 1155 z "},"X":{"ha":1109,"x_min":0,"x_max":0,"o":"m 63 67 l 157 -26 l 553 372 l 963 -26 l 1061 68 l 651 463 l 1020 826 l 928 918 l 559 551 l 186 918 l 89 821 l 460 460 z "},"Y":{"ha":1110,"x_min":0,"x_max":0,"o":"m 491 257 l 491 0 l 634 0 l 634 260 l 1085 842 l 984 918 l 566 380 l 137 918 l 34 833 z "},"Ý":{"ha":1110,"x_min":0,"x_max":0,"o":"m 491 257 l 491 0 l 634 0 l 634 260 l 1085 842 l 984 918 l 566 380 l 137 918 l 34 833 z m 448 1082 l 505 990 l 797 1137 l 737 1242 z "},"Ŷ":{"ha":1110,"x_min":0,"x_max":0,"o":"m 491 257 l 491 0 l 634 0 l 634 260 l 1085 842 l 984 918 l 566 380 l 137 918 l 34 833 z m 331 1062 l 413 985 l 572 1133 l 731 985 l 810 1063 l 628 1219 l 519 1219 z "},"Ÿ":{"ha":1110,"x_min":0,"x_max":0,"o":"m 491 257 l 491 0 l 634 0 l 634 260 l 1085 842 l 984 918 l 566 380 l 137 918 l 34 833 z m 348 1013 l 497 1013 l 497 1155 l 348 1155 z m 624 1013 l 772 1013 l 772 1155 l 624 1155 z "},"Z":{"ha":1038,"x_min":0,"x_max":0,"o":"m 67 144 l 67 0 l 980 0 l 980 122 l 233 122 l 950 744 l 950 896 l 110 896 l 110 774 l 789 774 z "},"Ź":{"ha":1038,"x_min":0,"x_max":0,"o":"m 424 1082 l 481 990 l 772 1137 l 713 1242 z m 67 0 l 980 0 l 980 122 l 233 122 l 950 744 l 950 896 l 110 896 l 110 774 l 789 774 l 67 144 z "},"Ż":{"ha":1038,"x_min":0,"x_max":0,"o":"m 67 144 l 67 0 l 980 0 l 980 122 l 233 122 l 950 744 l 950 896 l 110 896 l 110 774 l 789 774 z m 469 1013 l 618 1013 l 618 1155 l 469 1155 z "},"Ž":{"ha":1038,"x_min":0,"x_max":0,"o":"m 301 1173 l 484 1018 l 593 1018 l 780 1175 l 702 1251 l 542 1103 l 385 1251 z m 67 0 l 980 0 l 980 122 l 233 122 l 950 744 l 950 896 l 110 896 l 110 774 l 789 774 l 67 144 z "},"Æ":{"ha":1671,"x_min":0,"x_max":0,"o":"m 48 54 l 153 -27 l 321 192 l 781 192 l 781 0 l 1592 0 l 1592 121 l 922 121 l 922 394 l 1479 394 l 1479 515 l 922 515 l 922 775 l 1578 775 l 1578 896 l 704 896 z m 409 308 l 781 794 l 781 308 z "},"Ǽ":{"ha":1671,"x_min":0,"x_max":0,"o":"m 727 1082 l 784 990 l 1076 1137 l 1016 1242 z m 48 54 l 153 -27 l 321 192 l 781 192 l 781 0 l 1592 0 l 1592 121 l 922 121 l 922 394 l 1479 394 l 1479 515 l 922 515 l 922 775 l 1578 775 l 1578 896 l 704 896 z m 409 308 l 781 794 l 781 308 z "},"Ð":{"ha":1222,"x_min":0,"x_max":0,"o":"m 33 490 l 33 380 l 178 380 l 178 0 l 576 0 b 1113 440 931 0 1113 124 b 581 897 1113 744 949 897 l 178 897 l 178 490 z m 321 122 l 321 380 l 578 380 l 578 490 l 321 490 l 321 774 l 590 774 b 965 441 870 774 965 644 b 597 122 965 254 878 122 z "},"Ø":{"ha":1299,"x_min":0,"x_max":0,"o":"m 101 53 l 172 -26 l 284 68 b 644 -27 379 2 506 -27 b 1190 446 938 -27 1190 114 b 1092 744 1190 571 1153 670 l 1200 835 l 1128 915 l 1013 817 b 653 922 915 888 788 922 b 109 442 383 922 109 782 b 205 140 109 313 144 214 z m 259 444 b 649 794 259 683 431 794 b 903 725 746 794 835 772 l 319 235 b 259 444 281 289 259 358 z m 397 163 l 980 651 b 1040 444 1017 597 1040 529 b 642 101 1040 206 868 101 b 397 163 547 101 462 121 z "},"Ǿ":{"ha":1299,"x_min":0,"x_max":0,"o":"m 169 -26 l 283 69 b 644 -27 378 3 505 -27 b 1190 446 938 -27 1190 114 b 1090 746 1190 572 1152 672 l 1197 835 l 1126 915 l 1011 819 b 653 922 914 889 787 922 b 109 442 383 922 109 782 b 204 142 109 314 144 215 l 98 53 z m 259 444 b 649 794 259 683 431 794 b 901 726 745 794 833 772 l 318 238 b 259 444 281 290 259 358 z m 395 163 l 978 652 b 1040 444 1017 599 1040 530 b 642 101 1040 206 868 101 b 395 163 546 101 460 121 z m 533 1082 l 590 990 l 881 1137 l 822 1242 z "},"Þ":{"ha":1127,"x_min":0,"x_max":0,"o":"m 158 0 l 301 0 l 301 147 l 657 147 b 1038 450 906 147 1038 242 b 671 776 1038 667 911 776 l 301 776 l 301 896 l 158 896 z m 301 269 l 301 653 l 674 653 b 888 451 810 653 888 583 b 662 269 888 341 831 269 z "},"Đ":{"ha":1222,"x_min":0,"x_max":0,"o":"m 33 490 l 33 380 l 178 380 l 178 0 l 576 0 b 1113 440 931 0 1113 124 b 581 897 1113 744 949 897 l 178 897 l 178 490 z m 321 122 l 321 380 l 578 380 l 578 490 l 321 490 l 321 774 l 590 774 b 965 441 870 774 965 644 b 597 122 965 254 878 122 z "},"Ħ":{"ha":1283,"x_min":0,"x_max":0,"o":"m 59 749 l 59 642 l 158 642 l 158 0 l 301 0 l 301 383 l 981 383 l 981 0 l 1124 0 l 1124 642 l 1222 642 l 1222 749 l 1124 749 l 1124 896 l 981 896 l 981 749 l 301 749 l 301 896 l 158 896 l 158 749 z m 301 505 l 301 642 l 981 642 l 981 505 z "},"Ĳ":{"ha":1358,"x_min":0,"x_max":0,"o":"m 158 896 l 158 0 l 301 0 l 301 896 z m 486 68 b 828 -27 555 19 672 -27 b 1219 332 1015 -27 1219 31 l 1219 897 l 1076 897 l 1076 336 b 831 100 1076 149 960 100 b 544 185 699 100 612 143 z "},"Ŀ":{"ha":947,"x_min":0,"x_max":0,"o":"m 158 896 l 158 0 l 931 0 l 931 123 l 301 123 l 301 896 z m 610 424 l 764 424 l 764 587 l 610 587 z "},"Ł":{"ha":947,"x_min":0,"x_max":0,"o":"m -4 396 l 41 299 l 158 354 l 158 0 l 931 0 l 931 123 l 301 123 l 301 421 l 544 534 l 499 631 l 301 538 l 301 896 l 158 896 l 158 472 z "},"Ŋ":{"ha":1233,"x_min":0,"x_max":0,"o":"m 709 -182 l 713 -299 l 735 -299 b 1075 -31 913 -299 1075 -228 l 1075 896 l 935 896 l 935 188 l 328 896 l 154 896 l 154 0 l 293 0 l 293 723 l 936 -16 b 709 -182 931 -160 807 -182 z "},"Œ":{"ha":1651,"x_min":0,"x_max":0,"o":"m 109 441 b 627 0 109 126 311 0 l 1560 0 l 1560 122 l 924 122 l 924 394 l 1447 394 l 1447 515 l 924 515 l 924 774 l 1545 774 l 1545 896 l 628 896 b 109 441 317 896 109 751 z m 260 442 b 623 774 260 652 378 774 l 781 774 l 781 122 l 615 122 b 260 442 369 122 260 243 z "},"Ŧ":{"ha":1010,"x_min":0,"x_max":0,"o":"m 223 484 l 223 382 l 422 382 l 422 0 l 565 0 l 565 382 l 780 382 l 780 484 l 565 484 l 565 773 l 988 773 l 988 896 l 22 896 l 22 773 l 422 773 l 422 484 z "},"Ω":{"ha":1279,"x_min":0,"x_max":0,"o":"m 96 0 l 533 0 l 533 108 b 283 467 383 181 283 309 b 640 808 283 697 444 808 b 996 467 831 808 996 697 b 746 108 996 309 899 183 l 746 0 l 1183 0 l 1183 108 l 944 108 b 1144 479 1065 187 1144 315 b 640 928 1144 773 902 928 b 135 479 377 928 135 773 b 333 108 135 315 206 192 l 96 108 z "},"a":{"ha":947,"x_min":0,"x_max":0,"o":"m 89 191 b 358 -21 89 26 226 -21 b 697 89 488 -21 604 25 l 717 0 l 831 0 l 831 422 b 483 699 831 628 683 699 b 153 643 331 699 220 667 l 185 531 b 476 583 247 552 357 583 b 692 432 635 583 692 524 l 692 422 b 521 430 631 427 574 430 b 89 191 247 430 89 356 z m 233 198 b 544 328 233 269 304 328 b 693 321 587 328 636 326 l 693 203 b 385 94 597 138 492 94 b 233 198 275 94 233 133 z "},"à":{"ha":947,"x_min":0,"x_max":0,"o":"m 89 191 b 358 -21 89 26 226 -21 b 697 89 488 -21 604 25 l 717 0 l 831 0 l 831 422 b 483 699 831 628 683 699 b 153 643 331 699 220 667 l 185 531 b 476 583 247 552 357 583 b 692 432 635 583 692 524 l 692 422 b 521 430 631 427 574 430 b 89 191 247 430 89 356 z m 233 198 b 544 328 233 269 304 328 b 693 321 587 328 636 326 l 693 203 b 385 94 597 138 492 94 b 233 198 275 94 233 133 z m 326 960 l 544 759 l 622 829 l 419 1048 z "},"á":{"ha":947,"x_min":0,"x_max":0,"o":"m 89 191 b 358 -21 89 26 226 -21 b 697 89 488 -21 604 25 l 717 0 l 831 0 l 831 422 b 483 699 831 628 683 699 b 153 643 331 699 220 667 l 185 531 b 476 583 247 552 357 583 b 692 432 635 583 692 524 l 692 422 b 521 430 631 427 574 430 b 89 191 247 430 89 356 z m 233 198 b 544 328 233 269 304 328 b 693 321 587 328 636 326 l 693 203 b 385 94 597 138 492 94 b 233 198 275 94 233 133 z m 366 830 l 442 759 l 660 960 l 570 1048 z "},"â":{"ha":947,"x_min":0,"x_max":0,"o":"m 89 191 b 358 -21 89 26 226 -21 b 697 89 488 -21 604 25 l 717 0 l 831 0 l 831 422 b 483 699 831 628 683 699 b 153 643 331 699 220 667 l 185 531 b 476 583 247 552 357 583 b 692 432 635 583 692 524 l 692 422 b 521 430 631 427 574 430 b 89 191 247 430 89 356 z m 233 198 b 544 328 233 269 304 328 b 693 321 587 328 636 326 l 693 203 b 385 94 597 138 492 94 b 233 198 275 94 233 133 z m 280 819 l 361 753 l 492 931 l 621 755 l 706 822 l 566 1002 l 426 1002 z "},"ã":{"ha":947,"x_min":0,"x_max":0,"o":"m 89 191 b 358 -21 89 26 226 -21 b 697 89 488 -21 604 25 l 717 0 l 831 0 l 831 422 b 483 699 831 628 683 699 b 153 643 331 699 220 667 l 185 531 b 476 583 247 552 357 583 b 692 432 635 583 692 524 l 692 422 b 521 430 631 427 574 430 b 89 191 247 430 89 356 z m 233 198 b 544 328 233 269 304 328 b 693 321 587 328 636 326 l 693 203 b 385 94 597 138 492 94 b 233 198 275 94 233 133 z m 236 810 l 321 767 b 403 842 337 812 364 842 b 478 810 430 842 450 828 b 589 767 508 788 542 767 b 758 915 658 767 721 793 l 671 952 b 586 871 644 890 626 871 b 508 910 561 871 537 890 b 403 947 477 931 444 947 b 236 810 329 947 265 913 z "},"ä":{"ha":947,"x_min":0,"x_max":0,"o":"m 89 191 b 358 -21 89 26 226 -21 b 697 89 488 -21 604 25 l 717 0 l 831 0 l 831 422 b 483 699 831 628 683 699 b 153 643 331 699 220 667 l 185 531 b 476 583 247 552 357 583 b 692 432 635 583 692 524 l 692 422 b 521 430 631 427 574 430 b 89 191 247 430 89 356 z m 233 198 b 544 328 233 269 304 328 b 693 321 587 328 636 326 l 693 203 b 385 94 597 138 492 94 b 233 198 275 94 233 133 z m 288 781 l 429 781 l 429 933 l 288 933 z m 557 781 l 699 781 l 699 933 l 557 933 z "},"å":{"ha":947,"x_min":0,"x_max":0,"o":"m 89 191 b 358 -21 89 26 226 -21 b 697 89 488 -21 604 25 l 717 0 l 831 0 l 831 422 b 483 699 831 628 683 699 b 153 643 331 699 220 667 l 185 531 b 476 583 247 552 357 583 b 692 432 635 583 692 524 l 692 422 b 521 430 631 427 574 430 b 89 191 247 430 89 356 z m 233 198 b 544 328 233 269 304 328 b 693 321 587 328 636 326 l 693 203 b 385 94 597 138 492 94 b 233 198 275 94 233 133 z m 331 896 b 494 754 331 814 391 754 b 657 896 593 754 657 814 b 494 1037 657 979 592 1037 b 331 896 396 1037 331 979 z m 419 896 b 494 963 419 935 445 963 b 567 896 542 963 567 935 b 494 829 567 858 541 829 b 419 896 445 829 419 858 z "},"ā":{"ha":947,"x_min":0,"x_max":0,"o":"m 89 191 b 358 -21 89 26 226 -21 b 697 89 488 -21 604 25 l 717 0 l 831 0 l 831 422 b 483 699 831 628 683 699 b 153 643 331 699 220 667 l 185 531 b 476 583 247 552 357 583 b 692 432 635 583 692 524 l 692 422 b 521 430 631 427 574 430 b 89 191 247 430 89 356 z m 233 198 b 544 328 233 269 304 328 b 693 321 587 328 636 326 l 693 203 b 385 94 597 138 492 94 b 233 198 275 94 233 133 z m 292 781 l 703 781 l 703 888 l 292 888 z "},"ă":{"ha":947,"x_min":0,"x_max":0,"o":"m 89 191 b 358 -21 89 26 226 -21 b 697 89 488 -21 604 25 l 717 0 l 831 0 l 831 422 b 483 699 831 628 683 699 b 153 643 331 699 220 667 l 185 531 b 476 583 247 552 357 583 b 692 432 635 583 692 524 l 692 422 b 521 430 631 427 574 430 b 89 191 247 430 89 356 z m 233 198 b 544 328 233 269 304 328 b 693 321 587 328 636 326 l 693 203 b 385 94 597 138 492 94 b 233 198 275 94 233 133 z m 286 960 b 499 754 294 840 360 754 b 711 960 635 754 701 844 l 602 977 b 499 851 588 872 544 851 b 395 977 454 851 410 872 z "},"ą":{"ha":947,"x_min":0,"x_max":0,"o":"m 527 -152 b 699 -290 527 -241 594 -290 b 849 -263 770 -290 828 -272 l 824 -173 b 717 -194 790 -186 750 -194 b 644 -132 679 -194 644 -178 b 831 0 644 -97 690 -51 l 831 422 b 483 699 831 628 683 699 b 153 643 331 699 220 667 l 185 531 b 476 583 247 552 357 583 b 692 432 635 583 692 524 l 692 422 b 521 430 631 427 574 430 b 89 191 247 430 89 356 b 358 -21 89 26 226 -21 b 697 89 488 -21 604 25 l 709 33 b 527 -152 599 -14 527 -69 z m 233 198 b 544 328 233 269 304 328 b 693 321 587 328 636 326 l 693 203 b 385 94 597 138 492 94 b 233 198 275 94 233 133 z "},"ǻ":{"ha":947,"x_min":0,"x_max":0,"o":"m 344 1140 l 398 1056 l 643 1178 l 578 1279 z m 89 191 b 358 -21 89 26 226 -21 b 697 89 488 -21 604 25 l 717 0 l 831 0 l 831 422 b 483 699 831 628 683 699 b 153 643 331 699 220 667 l 185 531 b 476 583 247 552 357 583 b 692 432 635 583 692 524 l 692 422 b 521 430 631 427 574 430 b 89 191 247 430 89 356 z m 233 198 b 544 328 233 269 304 328 b 693 321 587 328 636 326 l 693 203 b 385 94 597 138 492 94 b 233 198 275 94 233 133 z m 331 896 b 493 754 331 814 390 754 b 656 896 592 754 656 814 b 493 1037 656 979 591 1037 b 331 896 395 1037 331 979 z m 418 896 b 493 963 418 935 444 963 b 567 896 541 963 567 935 b 493 829 567 858 540 829 b 418 896 444 829 418 858 z "},"b":{"ha":990,"x_min":0,"x_max":0,"o":"m 253 72 b 535 -21 310 23 408 -21 b 900 339 744 -21 900 89 b 549 697 900 581 738 697 b 268 611 416 697 319 646 l 268 982 l 128 982 l 128 0 l 231 0 z m 268 194 l 268 490 b 523 578 330 534 424 578 b 753 333 674 578 753 488 b 520 99 753 183 672 99 b 268 194 438 99 349 131 z "},"c":{"ha":900,"x_min":0,"x_max":0,"o":"m 90 334 b 492 -21 90 101 249 -21 b 823 67 608 -21 710 5 l 765 175 b 502 99 690 134 603 99 b 235 333 347 99 235 177 b 508 578 235 503 356 578 b 755 518 578 578 662 557 l 801 635 b 508 697 726 669 633 697 b 90 334 269 697 90 572 z "},"ç":{"ha":900,"x_min":0,"x_max":0,"o":"m 90 334 b 429 -18 90 122 222 1 b 544 -134 524 -60 544 -102 b 465 -195 544 -176 512 -195 b 340 -173 430 -195 379 -186 l 314 -263 b 470 -290 341 -273 403 -290 b 660 -143 589 -290 660 -237 b 600 -12 660 -93 642 -50 b 823 67 674 -1 746 25 l 765 175 b 502 99 690 134 603 99 b 235 333 347 99 235 177 b 508 578 235 503 356 578 b 755 518 578 578 662 557 l 801 635 b 508 697 726 669 633 697 b 90 334 269 697 90 572 z "},"ć":{"ha":900,"x_min":0,"x_max":0,"o":"m 90 334 b 492 -21 90 101 249 -21 b 823 67 608 -21 710 5 l 765 175 b 502 99 690 134 603 99 b 235 333 347 99 235 177 b 508 578 235 503 356 578 b 755 518 578 578 662 557 l 801 635 b 508 697 726 669 633 697 b 90 334 269 697 90 572 z m 371 825 l 447 754 l 665 956 l 575 1043 z "},"ĉ":{"ha":900,"x_min":0,"x_max":0,"o":"m 90 334 b 492 -21 90 101 249 -21 b 823 67 608 -21 710 5 l 765 175 b 502 99 690 134 603 99 b 235 333 347 99 235 177 b 508 578 235 503 356 578 b 755 518 578 578 662 557 l 801 635 b 508 697 726 669 633 697 b 90 334 269 697 90 572 z m 274 819 l 355 753 l 486 931 l 615 755 l 699 822 l 560 1002 l 420 1002 z "},"ċ":{"ha":900,"x_min":0,"x_max":0,"o":"m 420 933 l 420 781 l 562 781 l 562 933 z m 90 334 b 492 -21 90 101 249 -21 b 823 67 608 -21 710 5 l 765 175 b 502 99 690 134 603 99 b 235 333 347 99 235 177 b 508 578 235 503 356 578 b 755 518 578 578 662 557 l 801 635 b 508 697 726 669 633 697 b 90 334 269 697 90 572 z "},"č":{"ha":900,"x_min":0,"x_max":0,"o":"m 90 334 b 492 -21 90 101 249 -21 b 823 67 608 -21 710 5 l 765 175 b 502 99 690 134 603 99 b 235 333 347 99 235 177 b 508 578 235 503 356 578 b 755 518 578 578 662 557 l 801 635 b 508 697 726 669 633 697 b 90 334 269 697 90 572 z m 281 954 l 420 774 l 560 774 l 707 956 l 625 1022 l 494 844 l 366 1021 z "},"d":{"ha":990,"x_min":0,"x_max":0,"o":"m 90 333 b 451 -21 90 99 241 -21 b 736 78 588 -21 685 39 l 751 0 l 861 0 l 861 982 l 722 982 l 722 628 b 469 697 658 665 576 697 b 90 333 257 697 90 578 z m 235 334 b 472 578 235 493 334 578 b 722 499 545 578 633 553 l 722 190 b 472 98 660 143 572 98 b 235 334 327 98 235 177 z "},"ď":{"ha":1105,"x_min":0,"x_max":0,"o":"m 1001 995 l 965 692 l 1088 676 l 1142 976 z m 90 333 b 451 -21 90 99 241 -21 b 736 78 588 -21 685 39 l 751 0 l 861 0 l 861 982 l 722 982 l 722 628 b 469 697 658 665 576 697 b 90 333 257 697 90 578 z m 235 334 b 472 578 235 493 334 578 b 722 499 545 578 633 553 l 722 190 b 472 98 660 143 572 98 b 235 334 327 98 235 177 z "},"e":{"ha":947,"x_min":0,"x_max":0,"o":"m 490 -21 b 847 54 623 -21 720 1 l 804 165 b 505 97 726 130 631 97 b 233 282 356 97 248 159 l 850 282 b 858 376 854 311 858 335 b 491 698 858 544 730 698 b 85 331 243 698 85 551 b 490 -21 85 92 256 -21 z m 232 383 b 491 584 247 508 342 584 b 724 383 619 584 710 510 z m 724 369 l 725 369 b 726 349 726 363 726 356 b 724 369 726 346 725 336 z "},"è":{"ha":947,"x_min":0,"x_max":0,"o":"m 311 956 l 529 754 l 607 824 l 403 1043 z m 85 331 b 490 -21 85 92 256 -21 b 847 54 623 -21 720 1 l 804 165 b 505 97 726 130 631 97 b 233 282 356 97 248 159 l 850 282 b 858 376 854 311 858 335 b 491 698 858 544 730 698 b 85 331 243 698 85 551 z m 232 383 b 491 584 247 508 342 584 b 724 383 619 584 710 510 z m 724 369 l 725 369 b 726 349 726 363 726 356 b 724 369 726 346 725 336 z "},"é":{"ha":947,"x_min":0,"x_max":0,"o":"m 490 -21 b 847 54 623 -21 720 1 l 804 165 b 505 97 726 130 631 97 b 233 282 356 97 248 159 l 850 282 b 858 376 854 311 858 335 b 491 698 858 544 730 698 b 85 331 243 698 85 551 b 490 -21 85 92 256 -21 z m 232 383 b 491 584 247 508 342 584 b 724 383 619 584 710 510 z m 387 825 l 463 754 l 681 956 l 591 1043 z m 724 369 l 725 369 b 726 349 726 363 726 356 b 724 369 726 346 725 336 z "},"ê":{"ha":947,"x_min":0,"x_max":0,"o":"m 279 824 l 360 758 l 492 935 l 620 759 l 705 826 l 565 1006 l 426 1006 z m 85 331 b 490 -21 85 92 256 -21 b 847 54 623 -21 720 1 l 804 165 b 505 97 726 130 631 97 b 233 282 356 97 248 159 l 850 282 b 858 376 854 311 858 335 b 491 698 858 544 730 698 b 85 331 243 698 85 551 z m 232 383 b 491 584 247 508 342 584 b 724 383 619 584 710 510 z m 724 369 l 725 369 b 726 349 726 363 726 356 b 724 369 726 346 725 336 z "},"ë":{"ha":947,"x_min":0,"x_max":0,"o":"m 286 933 l 286 781 l 428 781 l 428 933 z m 85 331 b 490 -21 85 92 256 -21 b 847 54 623 -21 720 1 l 804 165 b 505 97 726 130 631 97 b 233 282 356 97 248 159 l 850 282 b 858 376 854 311 858 335 b 491 698 858 544 730 698 b 85 331 243 698 85 551 z m 232 383 b 491 584 247 508 342 584 b 724 383 619 584 710 510 z m 556 781 l 697 781 l 697 933 l 556 933 z m 724 369 l 725 369 b 726 349 726 363 726 356 b 724 369 726 346 725 336 z "},"ē":{"ha":947,"x_min":0,"x_max":0,"o":"m 490 -21 b 847 54 623 -21 720 1 l 804 165 b 505 97 726 130 631 97 b 233 282 356 97 248 159 l 850 282 b 858 376 854 311 858 335 b 491 698 858 544 730 698 b 85 331 243 698 85 551 b 490 -21 85 92 256 -21 z m 232 383 b 491 584 247 508 342 584 b 724 383 619 584 710 510 z m 285 781 l 696 781 l 696 888 l 285 888 z m 724 369 l 725 369 b 726 349 726 363 726 356 b 724 369 726 346 725 336 z "},"ĕ":{"ha":947,"x_min":0,"x_max":0,"o":"m 490 -21 b 847 54 623 -21 720 1 l 804 165 b 505 97 726 130 631 97 b 233 282 356 97 248 159 l 850 282 b 858 376 854 311 858 335 b 491 698 858 544 730 698 b 85 331 243 698 85 551 b 490 -21 85 92 256 -21 z m 232 383 b 491 584 247 508 342 584 b 724 383 619 584 710 510 z m 278 960 b 491 754 287 840 352 754 b 703 960 628 754 693 844 l 594 977 b 491 851 580 872 537 851 b 388 977 447 851 402 872 z m 724 369 l 725 369 b 726 349 726 363 726 356 b 724 369 726 346 725 336 z "},"ė":{"ha":947,"x_min":0,"x_max":0,"o":"m 423 933 l 423 781 l 565 781 l 565 933 z m 85 331 b 490 -21 85 92 256 -21 b 847 54 623 -21 720 1 l 804 165 b 505 97 726 130 631 97 b 233 282 356 97 248 159 l 850 282 b 858 376 854 311 858 335 b 491 698 858 544 730 698 b 85 331 243 698 85 551 z m 232 383 b 491 584 247 508 342 584 b 724 383 619 584 710 510 z m 724 369 l 725 369 b 726 349 726 363 726 356 b 724 369 726 346 725 336 z "},"ę":{"ha":985,"x_min":0,"x_max":0,"o":"m 691 -290 b 851 -263 757 -290 827 -272 l 826 -173 b 701 -194 785 -186 738 -194 b 633 -133 668 -194 633 -178 b 817 41 633 -85 676 -26 l 816 42 l 847 54 l 804 165 b 505 97 726 130 631 97 b 233 282 356 97 248 159 l 850 282 b 858 376 854 311 858 335 b 491 698 858 544 730 698 b 85 331 243 698 85 551 b 490 -21 85 92 256 -21 b 572 -17 519 -21 546 -20 b 517 -143 537 -53 517 -94 b 691 -290 517 -237 583 -290 z m 232 383 b 491 584 247 508 342 584 b 724 383 619 584 710 510 z m 724 369 l 725 369 b 726 349 726 363 726 356 b 724 369 726 346 725 336 z "},"ě":{"ha":947,"x_min":0,"x_max":0,"o":"m 490 -21 b 847 54 623 -21 720 1 l 804 165 b 505 97 726 130 631 97 b 233 282 356 97 248 159 l 850 282 b 858 376 854 311 858 335 b 491 698 858 544 730 698 b 85 331 243 698 85 551 b 490 -21 85 92 256 -21 z m 232 383 b 491 584 247 508 342 584 b 724 383 619 584 710 510 z m 272 954 l 410 774 l 550 774 l 697 956 l 615 1022 l 484 844 l 356 1021 z m 724 369 l 725 369 b 726 349 726 363 726 356 b 724 369 726 346 725 336 z "},"f":{"ha":715,"x_min":0,"x_max":0,"o":"m 208 561 l 208 0 l 348 0 l 348 561 l 701 561 l 701 674 l 348 674 l 348 762 b 524 889 348 859 400 889 b 714 859 593 889 644 877 l 743 973 b 508 1008 689 988 597 1008 b 208 776 338 1008 208 963 l 208 674 l 70 674 l 70 561 z "},"g":{"ha":1006,"x_min":0,"x_max":0,"o":"m 462 -290 b 878 30 719 -290 878 -181 l 878 674 l 767 674 l 753 614 b 485 697 688 658 602 697 b 106 343 275 697 106 581 b 461 6 106 119 253 6 b 738 97 590 6 685 60 l 738 28 b 463 -171 738 -124 597 -171 b 168 -103 342 -171 242 -141 l 124 -219 b 462 -290 196 -254 298 -290 z m 251 344 b 497 578 251 495 354 578 b 738 497 566 578 651 552 l 738 218 b 482 126 677 173 587 126 b 251 344 337 126 251 202 z "},"ĝ":{"ha":1006,"x_min":0,"x_max":0,"o":"m 311 821 l 392 755 l 524 933 l 652 756 l 737 823 l 597 1003 l 458 1003 z m 106 343 b 461 6 106 119 253 6 b 738 97 590 6 685 60 l 738 28 b 463 -171 738 -124 597 -171 b 168 -103 342 -171 242 -141 l 124 -219 b 462 -290 196 -254 298 -290 b 878 30 719 -290 878 -181 l 878 674 l 767 674 l 753 614 b 485 697 688 658 602 697 b 106 343 275 697 106 581 z m 251 344 b 497 578 251 495 354 578 b 738 497 566 578 651 552 l 738 218 b 482 126 677 173 587 126 b 251 344 337 126 251 202 z "},"ğ":{"ha":1006,"x_min":0,"x_max":0,"o":"m 462 -290 b 878 30 719 -290 878 -181 l 878 674 l 767 674 l 753 614 b 485 697 688 658 602 697 b 106 343 275 697 106 581 b 461 6 106 119 253 6 b 738 97 590 6 685 60 l 738 28 b 463 -171 738 -124 597 -171 b 168 -103 342 -171 242 -141 l 124 -219 b 462 -290 196 -254 298 -290 z m 251 344 b 497 578 251 495 354 578 b 738 497 566 578 651 552 l 738 218 b 482 126 677 173 587 126 b 251 344 337 126 251 202 z m 304 960 b 517 754 313 840 378 754 b 729 960 653 754 719 844 l 620 977 b 517 851 606 872 563 851 b 413 977 472 851 428 872 z "},"ġ":{"ha":1006,"x_min":0,"x_max":0,"o":"m 449 933 l 449 781 l 590 781 l 590 933 z m 106 343 b 461 6 106 119 253 6 b 738 97 590 6 685 60 l 738 28 b 463 -171 738 -124 597 -171 b 168 -103 342 -171 242 -141 l 124 -219 b 462 -290 196 -254 298 -290 b 878 30 719 -290 878 -181 l 878 674 l 767 674 l 753 614 b 485 697 688 658 602 697 b 106 343 275 697 106 581 z m 251 344 b 497 578 251 495 354 578 b 738 497 566 578 651 552 l 738 218 b 482 126 677 173 587 126 b 251 344 337 126 251 202 z "},"ģ":{"ha":1006,"x_min":0,"x_max":0,"o":"m 589 1074 l 526 1102 l 437 937 l 437 788 l 590 788 l 590 932 l 540 932 z m 106 343 b 461 6 106 119 253 6 b 738 97 590 6 685 60 l 738 28 b 463 -171 738 -124 597 -171 b 168 -103 342 -171 242 -141 l 124 -219 b 462 -290 196 -254 298 -290 b 878 30 719 -290 878 -181 l 878 674 l 767 674 l 753 614 b 485 697 688 658 602 697 b 106 343 275 697 106 581 z m 251 344 b 497 578 251 495 354 578 b 738 497 566 578 651 552 l 738 218 b 482 126 677 173 587 126 b 251 344 337 126 251 202 z "},"h":{"ha":986,"x_min":0,"x_max":0,"o":"m 128 982 l 128 0 l 268 0 l 268 485 b 563 578 304 509 423 578 b 731 412 671 578 731 531 l 731 0 l 871 0 l 871 423 b 576 698 871 638 737 698 b 268 602 438 698 325 643 l 268 982 z "},"ĥ":{"ha":986,"x_min":0,"x_max":0,"o":"m 281 1081 l 363 1005 l 522 1153 l 681 1005 l 760 1083 l 578 1238 l 469 1238 z m 128 0 l 268 0 l 268 485 b 563 578 304 509 423 578 b 731 412 671 578 731 531 l 731 0 l 871 0 l 871 423 b 576 698 871 638 737 698 b 268 602 438 698 325 643 l 268 982 l 128 982 z "},"i":{"ha":396,"x_min":0,"x_max":0,"o":"m 128 674 l 128 0 l 268 0 l 268 674 z m 128 781 l 268 781 l 268 933 l 128 933 z "},"ì":{"ha":396,"x_min":0,"x_max":0,"o":"m -17 956 l 201 754 l 279 824 l 76 1043 z m 128 0 l 268 0 l 268 674 l 128 674 z "},"í":{"ha":396,"x_min":0,"x_max":0,"o":"m 128 674 l 128 0 l 268 0 l 268 674 z m 123 826 l 199 755 l 417 956 l 327 1044 z "},"î":{"ha":396,"x_min":0,"x_max":0,"o":"m -17 819 l 64 753 l 195 931 l 324 755 l 408 822 l 269 1002 l 129 1002 z m 128 0 l 268 0 l 268 674 l 128 674 z "},"ï":{"ha":396,"x_min":0,"x_max":0,"o":"m -8 933 l -8 781 l 133 781 l 133 933 z m 128 0 l 268 0 l 268 674 l 128 674 z m 261 781 l 403 781 l 403 933 l 261 933 z "},"ĩ":{"ha":396,"x_min":0,"x_max":0,"o":"m 128 674 l 128 0 l 268 0 l 268 674 z m -63 810 l 22 767 b 103 842 38 812 65 842 b 178 810 131 842 151 828 b 290 767 209 788 243 767 b 459 915 358 767 422 793 l 372 952 b 287 871 344 890 327 871 b 209 910 262 871 238 890 b 103 947 178 931 144 947 b -63 810 30 947 -34 913 z "},"ī":{"ha":396,"x_min":0,"x_max":0,"o":"m 128 674 l 128 0 l 268 0 l 268 674 z m -8 781 l 403 781 l 403 888 l -8 888 z "},"ĭ":{"ha":396,"x_min":0,"x_max":0,"o":"m 128 674 l 128 0 l 268 0 l 268 674 z m -15 960 b 198 754 -6 840 59 754 b 410 960 335 754 400 844 l 301 977 b 198 851 287 872 244 851 b 94 977 153 851 109 872 z "},"į":{"ha":396,"x_min":0,"x_max":0,"o":"m 181 -290 b 344 -263 252 -290 319 -272 l 319 -173 b 191 -194 277 -186 230 -194 b 124 -131 159 -194 124 -176 b 268 0 124 -87 169 -42 l 268 674 l 128 674 l 128 17 b 7 -143 49 -25 7 -78 b 181 -290 7 -237 73 -290 z m 128 781 l 268 781 l 268 933 l 128 933 z "},"j":{"ha":445,"x_min":0,"x_max":0,"o":"m -9 -165 l 29 -290 b 317 -3 226 -234 317 -158 l 317 674 l 178 674 l 178 10 b -9 -165 178 -83 92 -129 z m 178 781 l 317 781 l 317 933 l 178 933 z "},"ĵ":{"ha":442,"x_min":0,"x_max":0,"o":"m 28 819 l 110 753 l 241 931 l 369 755 l 454 822 l 315 1002 l 175 1002 z m -11 -165 l 27 -290 b 315 -3 224 -234 315 -158 l 315 674 l 176 674 l 176 10 b -11 -165 176 -83 90 -129 z "},"k":{"ha":928,"x_min":0,"x_max":0,"o":"m 494 329 l 761 -26 l 869 50 l 599 411 l 838 598 l 760 697 l 268 311 l 268 982 l 128 982 l 128 0 l 268 0 l 268 153 z "},"ķ":{"ha":941,"x_min":0,"x_max":0,"o":"m 419 -376 l 483 -404 l 572 -239 l 572 -90 l 419 -90 l 419 -234 l 469 -234 z m 128 0 l 268 0 l 268 153 l 494 329 l 761 -26 l 869 50 l 599 411 l 838 598 l 760 697 l 268 311 l 268 982 l 128 982 z "},"l":{"ha":396,"x_min":0,"x_max":0,"o":"m 128 982 l 128 0 l 268 0 l 268 982 z "},"ĺ":{"ha":396,"x_min":0,"x_max":0,"o":"m 126 1130 l 183 1038 l 475 1185 l 415 1290 z m 128 0 l 268 0 l 268 982 l 128 982 z "},"ļ":{"ha":396,"x_min":0,"x_max":0,"o":"m 122 -376 l 185 -404 l 274 -239 l 274 -90 l 122 -90 l 122 -234 l 172 -234 z m 128 0 l 268 0 l 268 982 l 128 982 z "},"ľ":{"ha":513,"x_min":0,"x_max":0,"o":"m 406 994 l 369 692 l 492 675 l 546 976 z m 128 0 l 268 0 l 268 982 l 128 982 z "},"m":{"ha":1493,"x_min":0,"x_max":0,"o":"m 128 674 l 128 0 l 268 0 l 268 485 b 550 578 303 510 417 578 b 701 426 649 578 701 528 l 701 0 l 841 0 l 841 504 b 1087 578 889 532 981 578 b 1238 411 1186 578 1238 531 l 1238 0 l 1378 0 l 1378 422 b 1099 698 1378 638 1257 698 b 800 597 969 698 863 640 b 563 698 748 673 664 698 b 263 598 429 698 322 640 l 245 674 z "},"n":{"ha":998,"x_min":0,"x_max":0,"o":"m 128 674 l 128 0 l 268 0 l 268 483 b 570 578 305 508 426 578 b 743 412 681 578 743 532 l 743 0 l 883 0 l 883 423 b 583 698 883 638 747 698 b 263 598 438 698 322 639 l 245 674 z "},"ñ":{"ha":998,"x_min":0,"x_max":0,"o":"m 128 674 l 128 0 l 268 0 l 268 483 b 570 578 305 508 426 578 b 743 412 681 578 743 532 l 743 0 l 883 0 l 883 423 b 583 698 883 638 747 698 b 263 598 438 698 322 639 l 245 674 z m 265 810 l 350 767 b 432 842 366 812 393 842 b 507 810 459 842 479 828 b 618 767 538 788 572 767 b 788 915 687 767 750 793 l 700 952 b 615 871 673 890 656 871 b 538 910 590 871 566 890 b 432 947 506 931 473 947 b 265 810 358 947 294 913 z "},"ń":{"ha":998,"x_min":0,"x_max":0,"o":"m 392 825 l 467 754 l 685 956 l 596 1043 z m 128 0 l 268 0 l 268 483 b 570 578 305 508 426 578 b 743 412 681 578 743 532 l 743 0 l 883 0 l 883 423 b 583 698 883 638 747 698 b 263 598 438 698 322 639 l 245 674 l 128 674 z "},"ņ":{"ha":998,"x_min":0,"x_max":0,"o":"m 431 -376 l 494 -404 l 583 -239 l 583 -90 l 431 -90 l 431 -234 l 481 -234 z m 128 0 l 268 0 l 268 483 b 570 578 305 508 426 578 b 743 412 681 578 743 532 l 743 0 l 883 0 l 883 423 b 583 698 883 638 747 698 b 263 598 438 698 322 639 l 245 674 l 128 674 z "},"ň":{"ha":998,"x_min":0,"x_max":0,"o":"m 319 954 l 458 774 l 598 774 l 745 956 l 663 1022 l 532 844 l 404 1021 z m 128 0 l 268 0 l 268 483 b 570 578 305 508 426 578 b 743 412 681 578 743 532 l 743 0 l 883 0 l 883 423 b 583 698 883 638 747 698 b 263 598 438 698 322 639 l 245 674 l 128 674 z "},"o":{"ha":1013,"x_min":0,"x_max":0,"o":"m 90 338 b 506 -21 90 106 268 -21 b 923 338 742 -21 923 106 b 506 699 923 572 735 699 b 90 338 277 699 90 572 z m 235 339 b 506 579 235 489 351 579 b 777 339 662 579 777 489 b 506 99 777 189 662 99 b 235 339 351 99 235 189 z "},"ò":{"ha":1013,"x_min":0,"x_max":0,"o":"m 335 956 l 553 754 l 631 824 l 428 1043 z m 90 338 b 506 -21 90 106 268 -21 b 923 338 742 -21 923 106 b 506 699 923 572 735 699 b 90 338 277 699 90 572 z m 235 339 b 506 579 235 489 351 579 b 777 339 662 579 777 489 b 506 99 777 189 662 99 b 235 339 351 99 235 189 z "},"ó":{"ha":1013,"x_min":0,"x_max":0,"o":"m 415 825 l 491 754 l 709 956 l 619 1043 z m 90 338 b 506 -21 90 106 268 -21 b 923 338 742 -21 923 106 b 506 699 923 572 735 699 b 90 338 277 699 90 572 z m 235 339 b 506 579 235 489 351 579 b 777 339 662 579 777 489 b 506 99 777 189 662 99 b 235 339 351 99 235 189 z "},"ô":{"ha":1013,"x_min":0,"x_max":0,"o":"m 292 819 l 374 753 l 505 931 l 633 755 l 718 822 l 578 1002 l 439 1002 z m 90 338 b 506 -21 90 106 268 -21 b 923 338 742 -21 923 106 b 506 699 923 572 735 699 b 90 338 277 699 90 572 z m 235 339 b 506 579 235 489 351 579 b 777 339 662 579 777 489 b 506 99 777 189 662 99 b 235 339 351 99 235 189 z "},"õ":{"ha":1013,"x_min":0,"x_max":0,"o":"m 90 338 b 506 -21 90 106 268 -21 b 923 338 742 -21 923 106 b 506 699 923 572 735 699 b 90 338 277 699 90 572 z m 235 339 b 506 579 235 489 351 579 b 777 339 662 579 777 489 b 506 99 777 189 662 99 b 235 339 351 99 235 189 z m 244 810 l 329 767 b 411 842 345 812 372 842 b 486 810 438 842 458 828 b 597 767 517 788 551 767 b 767 915 666 767 729 793 l 679 952 b 594 871 652 890 635 871 b 517 910 569 871 545 890 b 411 947 485 931 452 947 b 244 810 338 947 274 913 z "},"ö":{"ha":1013,"x_min":0,"x_max":0,"o":"m 299 933 l 299 781 l 441 781 l 441 933 z m 90 338 b 506 -21 90 106 268 -21 b 923 338 742 -21 923 106 b 506 699 923 572 735 699 b 90 338 277 699 90 572 z m 235 339 b 506 579 235 489 351 579 b 777 339 662 579 777 489 b 506 99 777 189 662 99 b 235 339 351 99 235 189 z m 569 781 l 710 781 l 710 933 l 569 933 z "},"ō":{"ha":1013,"x_min":0,"x_max":0,"o":"m 90 338 b 506 -21 90 106 268 -21 b 923 338 742 -21 923 106 b 506 699 923 572 735 699 b 90 338 277 699 90 572 z m 235 339 b 506 579 235 489 351 579 b 777 339 662 579 777 489 b 506 99 777 189 662 99 b 235 339 351 99 235 189 z m 300 781 l 711 781 l 711 888 l 300 888 z "},"ŏ":{"ha":1013,"x_min":0,"x_max":0,"o":"m 90 338 b 506 -21 90 106 268 -21 b 923 338 742 -21 923 106 b 506 699 923 572 735 699 b 90 338 277 699 90 572 z m 235 339 b 506 579 235 489 351 579 b 777 339 662 579 777 489 b 506 99 777 189 662 99 b 235 339 351 99 235 189 z m 294 960 b 507 754 303 840 368 754 b 719 960 644 754 709 844 l 610 977 b 507 851 596 872 553 851 b 403 977 463 851 418 872 z "},"ő":{"ha":1013,"x_min":0,"x_max":0,"o":"m 289 809 l 382 753 l 541 969 l 431 1041 z m 90 338 b 506 -21 90 106 268 -21 b 923 338 742 -21 923 106 b 506 699 923 572 735 699 b 90 338 277 699 90 572 z m 235 339 b 506 579 235 489 351 579 b 777 339 662 579 777 489 b 506 99 777 189 662 99 b 235 339 351 99 235 189 z m 579 823 l 665 758 l 849 956 l 748 1037 z "},"p":{"ha":990,"x_min":0,"x_max":0,"o":"m 128 674 l 128 -274 l 268 -274 l 268 53 b 536 -21 326 15 415 -21 b 900 339 745 -21 900 90 b 549 697 900 581 738 697 b 258 605 409 697 308 640 l 245 674 z m 268 184 l 268 493 b 523 578 330 536 424 578 b 754 333 674 578 754 485 b 524 99 754 184 672 99 b 268 184 439 99 351 128 z "},"q":{"ha":990,"x_min":0,"x_max":0,"o":"m 722 81 l 722 -274 l 861 -274 l 861 674 l 752 674 l 737 615 b 476 697 673 658 589 697 b 90 339 260 697 90 580 b 449 -5 90 112 242 -5 b 722 81 577 -5 670 45 z m 235 340 b 480 578 235 496 337 578 b 722 494 551 578 635 551 l 722 206 b 467 114 660 159 572 114 b 235 340 327 114 235 191 z "},"r":{"ha":631,"x_min":0,"x_max":0,"o":"m 128 0 l 268 0 l 268 451 b 613 563 371 513 485 553 l 599 698 b 264 564 465 692 353 635 l 243 674 l 128 674 z "},"ŕ":{"ha":633,"x_min":0,"x_max":0,"o":"m 128 0 l 268 0 l 268 451 b 613 563 371 513 485 553 l 599 698 b 264 564 465 692 353 635 l 243 674 l 128 674 z m 249 825 l 324 754 l 542 956 l 453 1043 z "},"ŗ":{"ha":633,"x_min":0,"x_max":0,"o":"m 123 -376 l 186 -404 l 275 -239 l 275 -90 l 122 -90 l 122 -234 l 172 -234 z m 128 0 l 268 0 l 268 451 b 613 563 371 513 485 553 l 599 698 b 264 564 465 692 353 635 l 243 674 l 128 674 z "},"ř":{"ha":633,"x_min":0,"x_max":0,"o":"m 128 0 l 268 0 l 268 451 b 613 563 371 513 485 553 l 599 698 b 264 564 465 692 353 635 l 243 674 l 128 674 z m 142 954 l 281 774 l 420 774 l 567 956 l 485 1022 l 354 844 l 226 1021 z "},"s":{"ha":863,"x_min":0,"x_max":0,"o":"m 116 163 l 73 49 b 418 -21 141 15 267 -21 b 789 210 644 -21 789 32 b 485 410 789 381 632 403 b 230 491 353 417 230 413 b 436 587 230 556 297 587 b 706 540 526 587 614 569 l 743 651 b 437 699 672 674 565 699 b 97 485 257 699 97 646 b 422 292 97 308 267 298 b 661 201 547 288 661 288 b 423 95 661 130 590 95 b 116 163 300 95 207 121 z "},"ś":{"ha":863,"x_min":0,"x_max":0,"o":"m 116 163 l 73 49 b 418 -21 141 15 267 -21 b 789 210 644 -21 789 32 b 485 410 789 381 632 403 b 230 491 353 417 230 413 b 436 587 230 556 297 587 b 706 540 526 587 614 569 l 743 651 b 437 699 672 674 565 699 b 97 485 257 699 97 646 b 422 292 97 308 267 298 b 661 201 547 288 661 288 b 423 95 661 130 590 95 b 116 163 300 95 207 121 z m 324 825 l 399 754 l 617 956 l 528 1043 z "},"ŝ":{"ha":863,"x_min":0,"x_max":0,"o":"m 116 163 l 73 49 b 418 -21 141 15 267 -21 b 789 210 644 -21 789 32 b 485 410 789 381 632 403 b 230 491 353 417 230 413 b 436 587 230 556 297 587 b 706 540 526 587 614 569 l 743 651 b 437 699 672 674 565 699 b 97 485 257 699 97 646 b 422 292 97 308 267 298 b 661 201 547 288 661 288 b 423 95 661 130 590 95 b 116 163 300 95 207 121 z m 215 819 l 297 753 l 428 931 l 556 755 l 641 822 l 501 1002 l 362 1002 z "},"ş":{"ha":863,"x_min":0,"x_max":0,"o":"m 116 163 l 73 49 b 370 -19 134 19 240 -13 b 481 -134 463 -60 481 -103 b 402 -195 481 -176 449 -195 b 277 -173 367 -195 317 -186 l 251 -263 b 408 -290 278 -273 340 -290 b 597 -143 526 -290 597 -237 b 540 -15 597 -94 580 -51 b 789 210 694 4 789 66 b 485 410 789 381 632 403 b 230 491 353 417 230 413 b 436 587 230 556 297 587 b 706 540 526 587 614 569 l 743 651 b 437 699 672 674 565 699 b 97 485 257 699 97 646 b 422 292 97 308 267 298 b 661 201 547 288 661 288 b 423 95 661 130 590 95 b 116 163 300 95 207 121 z "},"š":{"ha":863,"x_min":0,"x_max":0,"o":"m 116 163 l 73 49 b 418 -21 141 15 267 -21 b 789 210 644 -21 789 32 b 485 410 789 381 632 403 b 230 491 353 417 230 413 b 436 587 230 556 297 587 b 706 540 526 587 614 569 l 743 651 b 437 699 672 674 565 699 b 97 485 257 699 97 646 b 422 292 97 308 267 298 b 661 201 547 288 661 288 b 423 95 661 130 590 95 b 116 163 300 95 207 121 z m 220 954 l 359 774 l 499 774 l 646 956 l 564 1022 l 433 844 l 305 1021 z "},"ș":{"ha":863,"x_min":0,"x_max":0,"o":"m 360 -376 l 424 -404 l 513 -239 l 513 -90 l 360 -90 l 360 -234 l 410 -234 z m 73 49 b 418 -21 141 15 267 -21 b 789 210 644 -21 789 32 b 485 410 789 381 632 403 b 230 491 353 417 230 413 b 436 587 230 556 297 587 b 706 540 526 587 614 569 l 743 651 b 437 699 672 674 565 699 b 97 485 257 699 97 646 b 422 292 97 308 267 298 b 661 201 547 288 661 288 b 423 95 661 130 590 95 b 116 163 300 95 207 121 z "},"t":{"ha":786,"x_min":0,"x_max":0,"o":"m 222 186 b 476 -21 222 20 323 -21 b 726 23 592 -21 726 23 l 703 136 b 497 99 703 136 590 99 b 362 206 401 99 362 118 l 362 558 l 697 558 l 697 674 l 362 674 l 362 856 l 222 856 l 222 674 l 70 674 l 70 558 l 222 558 z "},"ţ":{"ha":786,"x_min":0,"x_max":0,"o":"m 347 -376 l 410 -404 l 499 -239 l 499 -90 l 347 -90 l 347 -234 l 397 -234 z m 70 558 l 222 558 l 222 186 b 476 -21 222 20 323 -21 b 726 23 592 -21 726 23 l 703 136 b 497 99 703 136 590 99 b 362 206 401 99 362 118 l 362 558 l 697 558 l 697 674 l 362 674 l 362 856 l 222 856 l 222 674 l 70 674 z "},"ť":{"ha":786,"x_min":0,"x_max":0,"o":"m 490 1094 l 454 792 l 576 775 l 631 1076 z m 70 558 l 222 558 l 222 186 b 476 -21 222 20 323 -21 b 726 23 592 -21 726 23 l 703 136 b 497 99 703 136 590 99 b 362 206 401 99 362 118 l 362 558 l 697 558 l 697 674 l 362 674 l 362 856 l 222 856 l 222 674 l 70 674 z "},"ț":{"ha":786,"x_min":0,"x_max":0,"o":"m 369 -376 l 432 -404 l 521 -239 l 521 -90 l 368 -90 l 368 -234 l 418 -234 z m 70 558 l 222 558 l 222 186 b 476 -21 222 20 323 -21 b 726 23 592 -21 726 23 l 703 136 b 497 99 703 136 590 99 b 362 206 401 99 362 118 l 362 558 l 697 558 l 697 674 l 362 674 l 362 856 l 222 856 l 222 674 l 70 674 z "},"u":{"ha":1005,"x_min":0,"x_max":0,"o":"m 115 295 b 417 -21 115 43 248 -21 b 751 84 560 -21 678 33 l 767 0 l 877 0 l 877 674 l 738 674 l 738 199 b 446 98 697 168 587 98 b 255 335 309 98 255 148 l 255 674 l 115 674 z "},"ù":{"ha":1005,"x_min":0,"x_max":0,"o":"m 298 956 l 516 754 l 594 824 l 390 1043 z m 115 295 b 417 -21 115 43 248 -21 b 751 84 560 -21 678 33 l 767 0 l 877 0 l 877 674 l 738 674 l 738 199 b 446 98 697 168 587 98 b 255 335 309 98 255 148 l 255 674 l 115 674 z "},"ú":{"ha":1005,"x_min":0,"x_max":0,"o":"m 115 295 b 417 -21 115 43 248 -21 b 751 84 560 -21 678 33 l 767 0 l 877 0 l 877 674 l 738 674 l 738 199 b 446 98 697 168 587 98 b 255 335 309 98 255 148 l 255 674 l 115 674 z m 401 825 l 476 754 l 694 956 l 605 1043 z "},"û":{"ha":1005,"x_min":0,"x_max":0,"o":"m 286 819 l 367 753 l 499 931 l 627 755 l 712 822 l 572 1002 l 433 1002 z m 115 295 b 417 -21 115 43 248 -21 b 751 84 560 -21 678 33 l 767 0 l 877 0 l 877 674 l 738 674 l 738 199 b 446 98 697 168 587 98 b 255 335 309 98 255 148 l 255 674 l 115 674 z "},"ü":{"ha":1005,"x_min":0,"x_max":0,"o":"m 289 933 l 289 781 l 431 781 l 431 933 z m 115 295 b 417 -21 115 43 248 -21 b 751 84 560 -21 678 33 l 767 0 l 877 0 l 877 674 l 738 674 l 738 199 b 446 98 697 168 587 98 b 255 335 309 98 255 148 l 255 674 l 115 674 z m 558 781 l 700 781 l 700 933 l 558 933 z "},"ũ":{"ha":1005,"x_min":0,"x_max":0,"o":"m 115 295 b 417 -21 115 43 248 -21 b 751 84 560 -21 678 33 l 767 0 l 877 0 l 877 674 l 738 674 l 738 199 b 446 98 697 168 587 98 b 255 335 309 98 255 148 l 255 674 l 115 674 z m 238 810 l 323 767 b 405 842 339 812 366 842 b 480 810 432 842 452 828 b 591 767 510 788 544 767 b 760 915 660 767 723 793 l 673 952 b 588 871 646 890 628 871 b 510 910 563 871 539 890 b 405 947 479 931 446 947 b 238 810 331 947 267 913 z "},"ū":{"ha":1005,"x_min":0,"x_max":0,"o":"m 115 295 b 417 -21 115 43 248 -21 b 751 84 560 -21 678 33 l 767 0 l 877 0 l 877 674 l 738 674 l 738 199 b 446 98 697 168 587 98 b 255 335 309 98 255 148 l 255 674 l 115 674 z m 293 781 l 704 781 l 704 888 l 293 888 z "},"ŭ":{"ha":1005,"x_min":0,"x_max":0,"o":"m 115 295 b 417 -21 115 43 248 -21 b 751 84 560 -21 678 33 l 767 0 l 877 0 l 877 674 l 738 674 l 738 199 b 446 98 697 168 587 98 b 255 335 309 98 255 148 l 255 674 l 115 674 z m 285 960 b 498 754 294 840 359 754 b 710 960 635 754 700 844 l 601 977 b 498 851 587 872 544 851 b 394 977 453 851 409 872 z "},"ů":{"ha":1005,"x_min":0,"x_max":0,"o":"m 115 295 b 417 -21 115 43 248 -21 b 751 84 560 -21 678 33 l 767 0 l 877 0 l 877 674 l 738 674 l 738 199 b 446 98 697 168 587 98 b 255 335 309 98 255 148 l 255 674 l 115 674 z m 331 896 b 494 754 331 814 391 754 b 657 896 593 754 657 814 b 494 1037 657 979 592 1037 b 331 896 396 1037 331 979 z m 419 896 b 494 963 419 935 445 963 b 567 896 542 963 567 935 b 494 829 567 858 541 829 b 419 896 445 829 419 858 z "},"ű":{"ha":1005,"x_min":0,"x_max":0,"o":"m 115 295 b 417 -21 115 43 248 -21 b 751 84 560 -21 678 33 l 767 0 l 877 0 l 877 674 l 738 674 l 738 199 b 446 98 697 168 587 98 b 255 335 309 98 255 148 l 255 674 l 115 674 z m 271 809 l 364 753 l 523 969 l 413 1041 z m 561 823 l 647 758 l 831 956 l 730 1037 z "},"ų":{"ha":1005,"x_min":0,"x_max":0,"o":"m 623 -148 b 796 -290 623 -237 689 -290 b 939 -263 859 -290 918 -272 l 913 -173 b 807 -194 879 -186 839 -194 b 740 -133 774 -194 740 -178 b 877 0 740 -96 773 -52 l 877 674 l 738 674 l 738 199 b 446 98 697 168 587 98 b 255 335 309 98 255 148 l 255 674 l 115 674 l 115 295 b 417 -21 115 43 248 -21 b 751 84 560 -21 678 33 l 761 28 b 623 -148 677 -17 623 -74 z "},"v":{"ha":829,"x_min":0,"x_max":0,"o":"m 17 647 l 325 0 l 503 0 l 815 649 l 697 706 l 418 110 l 143 706 z "},"w":{"ha":1224,"x_min":0,"x_max":0,"o":"m 21 661 l 273 0 l 448 0 l 614 557 l 784 0 l 963 0 l 1203 666 l 1083 703 l 878 110 l 709 674 l 525 674 l 360 122 l 149 705 z "},"ŵ":{"ha":1224,"x_min":0,"x_max":0,"o":"m 401 819 l 483 753 l 614 931 l 742 755 l 827 822 l 688 1002 l 548 1002 z m 21 661 l 273 0 l 448 0 l 614 557 l 784 0 l 963 0 l 1203 666 l 1083 703 l 878 110 l 709 674 l 525 674 l 360 122 l 149 705 z "},"ẁ":{"ha":1224,"x_min":0,"x_max":0,"o":"m 413 956 l 631 754 l 708 824 l 505 1043 z m 21 661 l 273 0 l 448 0 l 614 557 l 784 0 l 963 0 l 1203 666 l 1083 703 l 878 110 l 709 674 l 525 674 l 360 122 l 149 705 z "},"ẃ":{"ha":1224,"x_min":0,"x_max":0,"o":"m 536 825 l 612 754 l 830 956 l 740 1043 z m 21 661 l 273 0 l 448 0 l 614 557 l 784 0 l 963 0 l 1203 666 l 1083 703 l 878 110 l 709 674 l 525 674 l 360 122 l 149 705 z "},"ẅ":{"ha":1224,"x_min":0,"x_max":0,"o":"m 412 933 l 412 781 l 553 781 l 553 933 z m 21 661 l 273 0 l 448 0 l 614 557 l 784 0 l 963 0 l 1203 666 l 1083 703 l 878 110 l 709 674 l 525 674 l 360 122 l 149 705 z m 681 781 l 823 781 l 823 933 l 681 933 z "},"x":{"ha":858,"x_min":0,"x_max":0,"o":"m 44 60 l 131 -26 l 424 269 l 737 -26 l 826 67 l 517 354 l 789 619 l 706 704 l 433 430 l 149 704 l 58 610 l 336 347 z "},"y":{"ha":846,"x_min":0,"x_max":0,"o":"m 371 -290 l 831 648 l 713 706 l 440 141 l 158 706 l 35 644 l 367 -4 l 252 -231 z "},"ý":{"ha":846,"x_min":0,"x_max":0,"o":"m 371 -290 l 831 648 l 713 706 l 440 141 l 158 706 l 35 644 l 367 -4 l 252 -231 z m 350 825 l 426 754 l 644 956 l 554 1043 z "},"ÿ":{"ha":846,"x_min":0,"x_max":0,"o":"m 371 -290 l 831 648 l 713 706 l 440 141 l 158 706 l 35 644 l 367 -4 l 252 -231 z m 222 781 l 364 781 l 364 933 l 222 933 z m 492 781 l 633 781 l 633 933 l 492 933 z "},"ŷ":{"ha":846,"x_min":0,"x_max":0,"o":"m 371 -290 l 831 648 l 713 706 l 440 141 l 158 706 l 35 644 l 367 -4 l 252 -231 z m 231 819 l 312 753 l 443 931 l 572 755 l 656 822 l 517 1002 l 377 1002 z "},"z":{"ha":883,"x_min":0,"x_max":0,"o":"m 79 136 l 79 0 l 824 0 l 824 116 l 248 116 l 790 545 l 790 674 l 109 674 l 109 558 l 617 558 z "},"ź":{"ha":883,"x_min":0,"x_max":0,"o":"m 79 136 l 79 0 l 824 0 l 824 116 l 248 116 l 790 545 l 790 674 l 109 674 l 109 558 l 617 558 z m 340 825 l 415 754 l 633 956 l 544 1043 z "},"ż":{"ha":883,"x_min":0,"x_max":0,"o":"m 395 933 l 395 781 l 537 781 l 537 933 z m 79 0 l 824 0 l 824 116 l 248 116 l 790 545 l 790 674 l 109 674 l 109 558 l 617 558 l 79 136 z "},"ž":{"ha":883,"x_min":0,"x_max":0,"o":"m 79 136 l 79 0 l 824 0 l 824 116 l 248 116 l 790 545 l 790 674 l 109 674 l 109 558 l 617 558 z m 259 954 l 398 774 l 538 774 l 685 956 l 603 1022 l 472 844 l 344 1021 z "},"ª":{"ha":644,"x_min":0,"x_max":0,"o":"m 93 561 b 263 431 93 456 184 431 b 460 490 340 431 411 457 l 472 440 l 561 440 l 561 681 b 338 881 561 828 475 881 b 133 844 251 881 177 860 l 158 761 b 338 795 196 776 265 795 b 453 706 411 795 444 769 b 367 710 423 709 394 710 b 93 561 189 710 93 660 z m 205 565 b 401 638 205 608 249 638 b 455 636 417 638 435 637 l 455 574 b 281 517 408 543 348 517 b 205 565 228 517 205 531 z "},"º":{"ha":656,"x_min":0,"x_max":0,"o":"m 64 652 b 327 429 64 506 181 429 b 591 652 472 429 591 506 b 327 876 591 799 474 876 b 64 652 183 876 64 799 z m 179 653 b 327 788 179 743 242 788 b 476 653 414 788 476 743 b 327 519 476 563 414 519 b 179 653 242 519 179 563 z "},"ß":{"ha":1008,"x_min":0,"x_max":0,"o":"m 613 -21 b 932 263 805 -21 932 57 b 733 515 932 445 833 504 b 865 718 818 544 865 606 b 515 999 865 923 708 999 b 141 683 326 999 141 929 l 141 0 l 281 0 l 281 667 b 517 880 281 828 370 880 b 719 722 643 880 719 828 b 551 549 719 617 658 549 l 458 549 l 458 435 l 564 435 b 786 258 722 435 786 392 b 615 98 786 150 728 98 b 415 133 526 98 469 113 l 388 19 b 613 -21 442 -4 514 -21 z "},"æ":{"ha":1460,"x_min":0,"x_max":0,"o":"m 1045 -21 b 1372 55 1161 -21 1264 6 l 1329 164 b 1055 94 1256 130 1154 94 b 799 287 898 94 815 160 l 1372 287 b 1379 367 1376 314 1379 332 b 1038 698 1379 523 1285 698 b 750 572 898 698 806 647 b 468 698 699 665 600 698 b 169 642 354 698 235 669 l 203 532 b 472 583 260 553 355 583 b 672 417 601 583 658 535 b 513 426 616 422 563 426 b 107 188 270 426 107 363 b 373 -21 107 31 230 -21 b 744 100 519 -21 641 30 b 1045 -21 801 28 898 -21 z m 251 195 b 558 322 251 285 360 322 b 674 318 594 322 633 320 b 692 197 674 276 680 235 b 392 95 594 134 489 95 b 251 195 299 95 251 132 z m 800 384 b 1039 583 817 513 901 583 b 1247 384 1178 583 1239 489 z "},"ǽ":{"ha":1472,"x_min":0,"x_max":0,"o":"m 1045 -21 b 1372 55 1161 -21 1264 6 l 1329 164 b 1055 94 1256 130 1154 94 b 799 287 898 94 815 160 l 1372 287 b 1379 367 1376 314 1379 332 b 1038 698 1379 523 1285 698 b 750 572 898 698 806 647 b 468 698 699 665 600 698 b 169 642 354 698 235 669 l 203 532 b 472 583 260 553 355 583 b 672 417 601 583 658 535 b 513 426 616 422 563 426 b 107 188 270 426 107 363 b 373 -21 107 31 230 -21 b 744 100 519 -21 641 30 b 1045 -21 801 28 898 -21 z m 251 195 b 558 322 251 285 360 322 b 674 318 594 322 633 320 b 692 197 674 276 680 235 b 392 95 594 134 489 95 b 251 195 299 95 251 132 z m 665 825 l 741 754 l 959 956 l 869 1043 z m 800 384 b 1039 583 817 513 901 583 b 1247 384 1178 583 1239 489 z "},"ð":{"ha":992,"x_min":0,"x_max":0,"o":"m 467 -17 b 911 402 735 -17 911 131 b 642 892 911 631 806 797 l 697 988 l 607 1035 l 549 936 b 296 990 472 966 387 984 l 274 881 b 488 830 352 872 424 856 l 436 743 l 527 695 l 578 784 b 771 489 682 718 751 619 b 449 645 704 595 590 645 b 80 317 232 645 80 519 b 467 -17 80 71 281 -17 z m 225 313 b 458 526 225 449 319 526 b 769 333 592 526 703 463 b 473 102 749 169 610 102 b 225 313 331 102 225 177 z "},"ø":{"ha":1011,"x_min":0,"x_max":0,"o":"m 77 51 l 149 -26 l 238 50 b 506 -21 310 3 402 -21 b 923 338 742 -21 923 106 b 847 561 923 429 894 503 l 919 622 l 851 702 l 766 631 b 506 699 694 676 604 699 b 90 338 277 699 90 572 b 160 121 90 250 115 177 z m 235 339 b 506 579 235 489 351 579 b 661 542 565 579 618 567 l 269 213 b 235 339 248 248 235 290 z m 345 140 l 740 471 b 777 339 763 435 777 390 b 506 99 777 189 662 99 b 345 140 444 99 389 113 z "},"ǿ":{"ha":1011,"x_min":0,"x_max":0,"o":"m 85 51 l 157 -26 l 243 47 b 506 -21 314 2 405 -21 b 923 338 742 -21 923 106 b 850 557 923 426 896 500 l 928 622 l 859 702 l 771 628 b 506 699 699 674 606 699 b 90 338 277 699 90 572 b 163 117 90 248 117 174 z m 235 339 b 506 579 235 489 351 579 b 666 540 567 579 622 565 l 272 208 b 235 339 249 244 235 288 z m 350 136 l 742 467 b 777 339 765 431 777 388 b 506 99 777 189 662 99 b 350 136 447 99 393 112 z m 416 825 l 492 754 l 710 956 l 620 1043 z "},"þ":{"ha":992,"x_min":0,"x_max":0,"o":"m 141 -274 l 281 -274 l 281 53 b 549 -21 338 15 427 -21 b 913 339 758 -21 913 90 b 563 697 913 581 751 697 b 281 611 429 697 332 646 l 281 982 l 141 982 z m 281 184 l 281 494 b 535 578 342 537 437 578 b 767 333 687 578 767 485 b 537 99 767 184 685 99 b 281 184 451 99 364 127 z "},"đ":{"ha":990,"x_min":0,"x_max":0,"o":"m 553 883 l 553 779 l 722 779 l 722 628 b 469 697 658 665 576 697 b 90 333 257 697 90 578 b 451 -21 90 99 241 -21 b 736 78 588 -21 685 39 l 751 0 l 861 0 l 861 779 l 993 779 l 993 883 l 861 883 l 861 982 l 722 982 l 722 883 z m 235 334 b 472 578 235 493 334 578 b 722 499 545 578 633 553 l 722 190 b 472 98 660 143 572 98 b 235 334 327 98 235 177 z "},"ħ":{"ha":986,"x_min":0,"x_max":0,"o":"m 17 883 l 17 779 l 128 779 l 128 0 l 268 0 l 268 485 b 563 578 304 509 423 578 b 731 412 671 578 731 531 l 731 0 l 871 0 l 871 423 b 576 698 871 638 737 698 b 268 602 438 698 325 643 l 268 779 l 456 779 l 456 883 l 268 883 l 268 982 l 128 982 l 128 883 z "},"ı":{"ha":396,"x_min":0,"x_max":0,"o":"m 128 674 l 128 0 l 268 0 l 268 674 z "},"ĳ":{"ha":891,"x_min":0,"x_max":0,"o":"m 176 674 l 176 0 l 316 0 l 316 674 z m 176 781 l 316 781 l 316 933 l 176 933 z m 437 -165 l 475 -290 b 763 -3 672 -234 763 -158 l 763 674 l 624 674 l 624 10 b 437 -165 624 -83 538 -129 z m 624 781 l 763 781 l 763 933 l 624 933 z "},"ĸ":{"ha":941,"x_min":0,"x_max":0,"o":"m 503 335 l 774 -26 l 882 50 l 608 417 l 851 608 l 778 701 l 268 299 l 268 674 l 128 674 l 128 0 l 268 0 l 268 153 z "},"ŀ":{"ha":429,"x_min":0,"x_max":0,"o":"m 128 982 l 128 0 l 268 0 l 268 982 z m 334 435 l 488 435 l 488 598 l 334 598 z "},"ł":{"ha":499,"x_min":0,"x_max":0,"o":"m -19 396 l 26 299 l 159 362 l 159 0 l 299 0 l 299 427 l 512 526 l 467 623 l 299 544 l 299 982 l 159 982 l 159 479 z "},"ŉ":{"ha":998,"x_min":0,"x_max":0,"o":"m -68 746 l -5 718 l 84 883 l 84 1033 l -69 1033 l -69 888 l -19 888 z m 128 0 l 268 0 l 268 483 b 570 578 305 508 426 578 b 743 412 681 578 743 532 l 743 0 l 883 0 l 883 423 b 583 698 883 638 747 698 b 263 598 438 698 322 639 l 245 674 l 128 674 z "},"ŋ":{"ha":998,"x_min":0,"x_max":0,"o":"m 541 -169 l 563 -286 b 883 -19 762 -267 883 -193 l 883 423 b 583 698 883 638 747 698 b 263 598 438 698 322 639 l 245 674 l 128 674 l 128 0 l 268 0 l 268 486 b 570 580 305 510 426 580 b 743 412 681 580 743 533 l 743 -4 b 541 -169 743 -128 631 -156 z "},"œ":{"ha":1551,"x_min":0,"x_max":0,"o":"m 470 -21 b 799 133 616 -21 735 33 b 1131 -21 860 30 977 -21 b 1463 55 1253 -21 1354 6 l 1419 165 b 1144 97 1346 131 1249 97 b 877 278 981 97 893 163 l 1463 278 b 1470 363 1467 308 1470 327 b 1128 698 1470 522 1374 698 b 805 537 978 698 865 638 b 472 699 742 642 622 699 b 80 338 257 699 80 572 b 470 -21 80 106 237 -21 z m 226 339 b 476 579 226 488 332 579 b 738 339 624 579 738 488 b 476 99 738 190 624 99 b 226 339 325 99 226 190 z m 876 381 b 1129 582 892 503 982 582 b 1340 381 1269 582 1333 485 z "},"ŧ":{"ha":786,"x_min":0,"x_max":0,"o":"m 69 415 l 69 310 l 222 310 l 222 186 b 476 -21 222 20 323 -21 b 726 23 592 -21 726 23 l 703 136 b 497 99 703 136 590 99 b 362 206 401 99 362 118 l 362 310 l 697 310 l 697 415 l 362 415 l 362 558 l 697 558 l 697 674 l 362 674 l 362 856 l 222 856 l 222 674 l 70 674 l 70 558 l 222 558 l 222 415 z "},"ſ":{"ha":653,"x_min":0,"x_max":0,"o":"m 208 561 l 208 0 l 348 0 l 348 762 b 524 889 348 859 400 889 b 714 859 593 889 644 877 l 743 973 b 508 1008 689 988 597 1008 b 208 776 338 1008 208 963 l 208 674 l 70 674 l 70 561 z "},"ȷ":{"ha":456,"x_min":0,"x_max":0,"o":"m -11 -165 l 27 -290 b 315 -3 224 -234 315 -158 l 315 674 l 176 674 l 176 10 b -11 -165 176 -83 90 -129 z "},"π":{"ha":1188,"x_min":0,"x_max":0,"o":"m 740 187 b 949 -18 740 23 823 -18 b 1128 21 1035 -18 1128 21 l 1101 128 b 970 98 1101 128 1024 98 b 878 204 907 98 878 118 l 878 561 l 1101 561 l 1101 674 l 64 674 l 64 561 l 264 561 l 264 0 l 403 0 l 403 561 l 740 561 z "},"¼":{"ha":1752,"x_min":0,"x_max":0,"o":"m 148 481 l 148 379 l 667 379 l 667 481 l 481 481 l 481 897 l 393 897 l 176 843 l 192 745 l 366 782 l 366 481 z m 559 9 l 650 -58 l 1370 819 l 1281 887 z m 1103 126 l 1469 126 l 1469 25 l 1577 25 l 1577 126 l 1676 126 l 1676 219 l 1577 219 l 1577 543 l 1425 543 l 1103 232 z m 1219 219 l 1469 459 l 1469 219 z "},"½":{"ha":1826,"x_min":0,"x_max":0,"o":"m 148 481 l 148 379 l 667 379 l 667 481 l 481 481 l 481 897 l 393 897 l 176 843 l 192 745 l 366 782 l 366 481 z m 560 9 l 651 -58 l 1371 819 l 1282 887 z m 1191 25 l 1734 25 l 1734 125 l 1312 125 l 1312 131 b 1458 231 1312 151 1329 193 l 1555 261 b 1720 415 1667 296 1720 334 b 1487 560 1720 513 1639 560 b 1213 500 1389 560 1283 533 l 1249 408 b 1485 461 1319 440 1403 461 b 1595 412 1563 461 1595 442 b 1509 346 1595 387 1579 367 l 1408 314 b 1191 107 1238 262 1191 197 z "},"¾":{"ha":1742,"x_min":0,"x_max":0,"o":"m 362 362 b 663 538 538 362 663 403 b 538 674 663 599 621 663 b 628 778 594 689 628 725 b 401 915 628 884 519 915 b 140 865 292 915 195 886 l 166 775 b 395 820 230 800 324 820 b 497 765 470 820 497 797 b 385 694 497 720 471 694 l 247 695 l 247 603 l 410 603 b 532 535 490 603 532 585 b 374 458 532 487 482 458 b 138 499 277 458 192 481 l 111 406 b 362 362 172 382 265 362 z m 535 12 l 626 -55 l 1346 822 l 1257 890 z m 1093 126 l 1460 126 l 1460 25 l 1567 25 l 1567 126 l 1666 126 l 1666 219 l 1567 219 l 1567 543 l 1415 543 l 1093 232 z m 1210 219 l 1460 459 l 1460 219 z "},"_":{"ha":992,"x_min":0,"x_max":0,"o":"m 38 -76 l 38 -189 l 954 -189 l 954 -76 z "},"-":{"ha":565,"x_min":0,"x_max":0,"o":"m 38 422 l 38 301 l 526 301 l 526 422 z "},"–":{"ha":884,"x_min":0,"x_max":0,"o":"m 38 422 l 38 311 l 846 311 l 846 422 z "},"—":{"ha":1292,"x_min":0,"x_max":0,"o":"m 38 422 l 38 319 l 1254 319 l 1254 422 z "},"(":{"ha":457,"x_min":0,"x_max":0,"o":"m 315 -106 l 418 -30 b 244 453 337 87 244 234 b 419 915 244 674 324 799 l 321 994 b 106 453 206 871 106 722 b 315 -106 106 177 228 -1 z "},")":{"ha":460,"x_min":0,"x_max":0,"o":"m 42 -30 l 146 -106 b 355 453 232 -1 355 177 b 140 994 355 722 255 871 l 42 915 b 216 453 136 799 216 674 b 42 -30 216 234 124 87 z "},"[":{"ha":523,"x_min":0,"x_max":0,"o":"m 141 1010 l 141 -106 l 453 -106 l 453 6 l 277 6 l 277 898 l 453 898 l 453 1010 z "},"]":{"ha":523,"x_min":0,"x_max":0,"o":"m 382 1010 l 70 1010 l 70 898 l 246 898 l 246 6 l 70 6 l 70 -106 l 382 -106 z "},"{":{"ha":599,"x_min":0,"x_max":0,"o":"m 528 -103 l 528 3 b 352 97 390 3 352 26 l 352 319 b 257 451 352 392 315 434 b 352 564 310 469 352 493 l 352 785 b 528 879 352 856 390 879 l 528 985 b 216 794 338 985 216 965 l 216 574 b 96 491 216 524 156 499 l 96 385 b 216 300 176 381 216 364 l 216 88 b 528 -103 216 -62 294 -103 z "},"}":{"ha":599,"x_min":0,"x_max":0,"o":"m 70 3 l 70 -103 b 382 88 260 -103 382 -84 l 382 301 b 502 385 382 356 438 378 l 502 491 b 382 575 427 495 382 516 l 382 794 b 70 985 382 965 260 985 l 70 879 b 246 785 208 879 246 856 l 246 563 b 342 438 246 489 287 452 b 246 318 285 420 246 389 l 246 97 b 70 3 246 26 208 3 z "},"#":{"ha":1087,"x_min":0,"x_max":0,"o":"m 196 3 l 317 -21 l 376 237 l 624 237 l 572 3 l 693 -21 l 751 237 l 991 237 l 990 342 l 775 342 l 828 576 l 1051 576 l 1051 682 l 852 682 l 900 893 l 774 914 l 722 682 l 476 682 l 524 893 l 397 914 l 346 682 l 108 682 l 108 576 l 323 576 l 271 342 l 48 342 l 48 237 l 248 237 z m 399 342 l 452 576 l 699 576 l 647 342 z "},"%":{"ha":1181,"x_min":0,"x_max":0,"o":"m 50 654 b 284 433 50 501 165 433 b 524 656 405 433 524 499 b 288 878 524 810 406 878 b 50 654 172 878 50 814 z m 167 655 b 287 777 167 740 217 777 b 406 655 353 777 406 740 b 286 533 406 569 356 533 b 167 655 219 533 167 569 z m 210 47 l 299 -21 l 973 817 l 887 885 z m 658 201 b 892 -21 658 47 773 -21 b 1131 202 1013 -21 1131 45 b 896 424 1131 357 1014 424 b 658 201 781 424 658 360 z m 775 201 b 894 323 775 287 825 323 b 1013 201 961 323 1013 287 b 894 80 1013 116 963 80 b 775 201 827 80 775 116 z "},"‰":{"ha":1725,"x_min":0,"x_max":0,"o":"m 50 672 b 284 451 50 519 165 451 b 524 674 405 451 524 517 b 288 897 524 829 406 897 b 50 672 172 897 50 833 z m 167 673 b 287 795 167 759 217 795 b 406 673 353 795 406 759 b 286 552 406 588 356 552 b 167 673 219 552 167 588 z m 199 47 l 286 -21 l 972 831 l 886 899 z m 658 201 b 892 -21 658 47 772 -21 b 1131 202 1013 -21 1131 45 b 896 424 1131 357 1013 424 b 658 201 780 424 658 360 z m 774 201 b 894 323 774 287 825 323 b 1013 201 961 323 1013 287 b 894 80 1013 116 963 80 b 774 201 827 80 774 116 z m 1201 201 b 1435 -21 1201 47 1316 -21 b 1675 202 1556 -21 1675 45 b 1440 424 1675 357 1557 424 b 1201 201 1324 424 1201 360 z m 1319 201 b 1438 323 1319 287 1369 323 b 1557 201 1505 323 1557 287 b 1438 80 1557 116 1507 80 b 1319 201 1371 80 1319 116 z "},"'":{"ha":288,"x_min":0,"x_max":0,"o":"m 80 896 l 99 577 l 190 577 l 208 896 z "},"\"":{"ha":499,"x_min":0,"x_max":0,"o":"m 291 896 l 310 577 l 401 577 l 419 896 z m 80 896 l 99 577 l 190 577 l 208 896 z "},"‘":{"ha":304,"x_min":0,"x_max":0,"o":"m 237 876 l 170 906 l 83 727 l 83 580 l 238 580 l 238 724 l 186 724 z "},"’":{"ha":304,"x_min":0,"x_max":0,"o":"m 89 601 l 156 571 l 243 749 l 243 897 l 88 897 l 88 753 l 140 753 z "},"“":{"ha":527,"x_min":0,"x_max":0,"o":"m 458 874 l 391 904 l 303 726 l 303 578 l 458 578 l 458 722 l 407 722 z m 81 578 l 236 578 l 236 722 l 185 722 l 235 874 l 169 904 l 81 726 z "},"”":{"ha":527,"x_min":0,"x_max":0,"o":"m 89 601 l 156 571 l 243 749 l 243 897 l 88 897 l 88 753 l 140 753 z m 310 753 l 362 753 l 311 601 l 378 571 l 465 749 l 465 897 l 310 897 z "},"‚":{"ha":308,"x_min":0,"x_max":0,"o":"m 86 -175 l 153 -205 l 240 -26 l 240 121 l 85 121 l 85 -23 l 137 -23 z "},"„":{"ha":519,"x_min":0,"x_max":0,"o":"m 86 -165 l 153 -195 l 240 -17 l 240 131 l 85 131 l 85 -13 l 137 -13 z m 308 -13 l 360 -13 l 309 -165 l 376 -195 l 463 -17 l 463 131 l 308 131 z "},"‹":{"ha":491,"x_min":0,"x_max":0,"o":"m 51 338 l 346 -27 l 453 58 l 215 346 l 438 617 l 333 701 z "},"›":{"ha":491,"x_min":0,"x_max":0,"o":"m 440 343 l 145 708 l 38 624 l 276 335 l 53 65 l 158 -19 z "},"«":{"ha":819,"x_min":0,"x_max":0,"o":"m 51 338 l 338 -27 l 444 58 l 215 346 l 426 613 l 324 701 z m 380 338 l 674 -27 l 781 58 l 544 346 l 763 613 l 660 700 z "},"»":{"ha":819,"x_min":0,"x_max":0,"o":"m 768 347 l 495 709 l 393 622 l 605 354 l 375 66 l 482 -19 z m 38 66 l 145 -19 l 440 347 l 159 708 l 57 622 l 276 354 z "},"*":{"ha":499,"x_min":0,"x_max":0,"o":"m 205 631 l 205 490 l 293 490 l 293 631 l 417 559 l 460 634 l 335 706 l 460 778 l 417 853 l 293 781 l 293 921 l 205 921 l 205 781 l 81 853 l 38 778 l 163 706 l 38 633 l 81 559 z "},"†":{"ha":566,"x_min":0,"x_max":0,"o":"m 216 586 l 228 -95 l 338 -95 l 349 586 l 501 586 l 501 692 l 349 692 l 349 938 l 216 938 l 216 692 l 64 692 l 64 586 z "},"‡":{"ha":566,"x_min":0,"x_max":0,"o":"m 222 291 l 228 -95 l 338 -95 l 344 291 l 501 291 l 501 396 l 346 396 l 349 586 l 501 586 l 501 692 l 349 692 l 349 938 l 216 938 l 216 692 l 64 692 l 64 586 l 216 586 l 219 396 l 64 396 l 64 291 z "},".":{"ha":308,"x_min":0,"x_max":0,"o":"m 77 163 l 77 0 l 231 0 l 231 163 z "},",":{"ha":308,"x_min":0,"x_max":0,"o":"m 142 -213 l 232 -12 l 232 144 l 78 144 l 78 -8 l 128 -8 l 77 -187 z "},":":{"ha":308,"x_min":0,"x_max":0,"o":"m 77 163 l 77 0 l 231 0 l 231 163 z m 77 511 l 231 511 l 231 674 l 77 674 z "},";":{"ha":322,"x_min":0,"x_max":0,"o":"m 150 -213 l 240 -12 l 240 144 l 85 144 l 85 -8 l 136 -8 l 85 -187 z m 86 511 l 240 511 l 240 674 l 86 674 z "},"…":{"ha":894,"x_min":0,"x_max":0,"o":"m 663 163 l 663 0 l 817 0 l 817 163 z m 77 0 l 231 0 l 231 163 l 77 163 z m 370 0 l 524 0 l 524 163 l 370 163 z "},"!":{"ha":460,"x_min":0,"x_max":0,"o":"m 160 616 l 174 263 l 286 263 l 301 613 l 301 896 l 160 896 z m 157 0 l 302 0 l 302 156 l 157 156 z "},"¡":{"ha":460,"x_min":0,"x_max":0,"o":"m 300 156 l 286 510 l 174 510 l 159 159 l 159 -124 l 300 -124 z m 158 617 l 303 617 l 303 772 l 158 772 z "},"?":{"ha":775,"x_min":0,"x_max":0,"o":"m 259 327 l 259 269 l 400 269 l 400 304 b 534 439 400 369 463 403 b 726 676 623 485 726 538 b 399 922 726 848 598 922 b 32 835 260 922 117 876 l 76 716 b 405 801 186 767 293 801 b 582 672 503 801 582 766 b 441 532 582 606 514 570 b 259 327 354 486 259 437 z m 259 0 l 404 0 l 404 156 l 259 156 z "},"¿":{"ha":775,"x_min":0,"x_max":0,"o":"m 516 445 l 516 503 l 375 503 l 375 468 b 241 333 375 403 312 369 b 49 97 152 288 49 235 b 376 -149 49 -76 177 -149 b 743 -63 515 -149 658 -103 l 699 56 b 370 -28 589 5 482 -28 b 193 100 272 -28 193 6 b 334 240 193 166 261 202 b 516 445 421 286 516 335 z m 371 617 l 516 617 l 516 772 l 371 772 z "},"/":{"ha":578,"x_min":0,"x_max":0,"o":"m 19 -199 l 144 -237 l 559 1015 l 433 1053 z "},"\\":{"ha":576,"x_min":0,"x_max":0,"o":"m 19 1015 l 431 -237 l 556 -199 l 145 1053 z "},"⁄":{"ha":508,"x_min":0,"x_max":0,"o":"m -151 12 l -60 -55 l 660 822 l 571 890 z "},"|":{"ha":443,"x_min":0,"x_max":0,"o":"m 154 1070 l 154 -292 l 289 -292 l 289 1070 z "},"¦":{"ha":443,"x_min":0,"x_max":0,"o":"m 154 338 l 154 -292 l 289 -292 l 289 338 z m 154 492 l 289 492 l 289 1070 l 154 1070 z "},"@":{"ha":1452,"x_min":0,"x_max":0,"o":"m 109 360 b 702 -191 109 -59 385 -191 b 1102 -135 865 -191 1008 -161 l 1075 -37 b 709 -89 997 -56 886 -89 b 228 363 421 -89 228 38 b 748 830 228 675 441 830 b 1240 401 1028 830 1240 700 b 1128 162 1240 217 1177 162 b 1061 222 1099 162 1061 172 l 1061 397 b 744 677 1061 605 935 677 b 467 619 644 677 540 650 l 501 525 b 751 579 551 547 643 579 b 940 444 866 579 923 536 b 807 450 892 448 849 450 b 414 238 560 450 414 381 b 653 59 414 94 543 59 b 955 158 778 59 883 106 b 1110 58 974 88 1039 58 b 1356 404 1218 58 1356 126 b 751 933 1356 786 1084 933 b 109 360 420 933 109 769 z m 539 243 b 846 361 539 308 619 361 b 945 358 876 361 909 360 l 947 260 b 672 158 870 204 771 158 b 539 243 581 158 539 191 z "},"&":{"ha":1163,"x_min":0,"x_max":0,"o":"m 472 -21 b 831 100 609 -21 738 13 b 1013 -21 887 63 947 22 l 1082 84 b 908 201 1019 126 961 164 b 972 504 963 300 972 410 l 839 504 b 794 277 838 407 820 333 b 367 706 492 484 367 592 b 524 801 367 766 423 801 b 722 760 583 801 663 778 l 760 876 b 516 921 694 901 594 921 b 224 699 374 921 224 872 b 328 478 224 625 254 558 b 128 215 197 417 128 332 b 472 -21 128 31 307 -21 z m 273 230 b 415 399 273 313 341 364 b 717 176 490 335 589 264 b 485 100 644 111 551 100 b 273 230 383 100 273 131 z "},"§":{"ha":949,"x_min":0,"x_max":0,"o":"m 152 -17 l 109 -131 b 460 -201 174 -164 299 -201 b 838 46 690 -201 838 -134 b 753 215 838 132 804 183 b 860 385 820 252 860 308 b 279 701 860 729 279 497 b 493 811 279 770 345 811 b 769 765 584 811 674 794 l 806 874 b 494 922 734 897 624 922 b 147 691 310 922 147 865 b 245 522 147 601 186 551 b 124 345 178 487 124 433 b 704 41 124 19 704 261 b 465 -85 704 -43 630 -85 b 152 -17 340 -85 249 -60 z m 256 363 b 379 486 256 426 306 463 b 733 374 541 466 733 497 b 631 256 733 319 690 277 b 256 363 467 285 256 244 z "},"¶":{"ha":993,"x_min":0,"x_max":0,"o":"m 383 330 l 472 330 l 472 -176 l 605 -176 l 605 913 l 387 913 b 58 619 172 913 58 806 b 383 330 58 420 188 330 z m 706 -176 l 840 -176 l 840 913 l 706 913 z "},"·":{"ha":308,"x_min":0,"x_max":0,"o":"m 77 568 l 77 405 l 231 405 l 231 568 z "},"•":{"ha":366,"x_min":0,"x_max":0,"o":"m 77 533 l 77 314 l 290 314 l 290 533 z "},"+":{"ha":877,"x_min":0,"x_max":0,"o":"m 370 353 l 370 72 l 506 72 l 506 353 l 813 353 l 813 474 l 506 474 l 506 726 l 370 726 l 370 474 l 64 474 l 64 353 z "},"−":{"ha":846,"x_min":0,"x_max":0,"o":"m 64 470 l 64 355 l 781 355 l 781 470 z "},"±":{"ha":846,"x_min":0,"x_max":0,"o":"m 355 491 l 355 238 l 491 238 l 491 491 l 781 491 l 781 612 l 491 612 l 491 835 l 355 835 l 355 612 l 64 612 l 64 491 z m 64 28 l 781 28 l 781 149 l 64 149 z "},"÷":{"ha":846,"x_min":0,"x_max":0,"o":"m 349 240 l 349 90 l 497 90 l 497 240 z m 64 355 l 781 355 l 781 470 l 64 470 z m 349 578 l 497 578 l 497 727 l 349 727 z "},"×":{"ha":742,"x_min":0,"x_max":0,"o":"m 64 178 l 156 91 l 369 305 l 588 92 l 678 183 l 462 390 l 663 588 l 576 674 l 378 472 l 172 674 l 79 581 l 283 388 z "},"=":{"ha":877,"x_min":0,"x_max":0,"o":"m 64 348 l 64 227 l 813 227 l 813 348 z m 64 481 l 813 481 l 813 601 l 64 601 z "},"<":{"ha":935,"x_min":0,"x_max":0,"o":"m 109 321 l 782 6 l 839 123 l 227 394 l 834 652 l 784 767 l 109 470 z "},">":{"ha":935,"x_min":0,"x_max":0,"o":"m 164 6 l 839 303 l 839 453 l 165 768 l 109 651 l 721 379 l 113 122 z "},"≤":{"ha":926,"x_min":0,"x_max":0,"o":"m 109 456 l 790 205 l 833 322 l 241 531 l 826 722 l 791 836 l 109 605 z m 109 0 l 826 0 l 826 120 l 109 120 z "},"≥":{"ha":926,"x_min":0,"x_max":0,"o":"m 110 320 l 144 205 l 830 442 l 830 592 l 157 836 l 114 719 l 698 516 z m 113 0 l 830 0 l 830 120 l 113 120 z "},"≈":{"ha":883,"x_min":0,"x_max":0,"o":"m 287 262 b 603 190 419 262 495 190 b 819 265 696 190 749 217 l 776 356 b 613 310 728 325 681 310 b 295 382 503 310 427 382 b 64 309 198 382 110 335 l 103 212 b 287 262 151 238 217 262 z m 64 569 l 103 467 b 287 518 151 493 217 518 b 603 447 419 518 495 447 b 819 521 696 447 749 473 l 776 615 b 613 569 728 585 681 569 b 295 641 503 569 427 641 b 64 569 198 641 110 595 z "},"≠":{"ha":877,"x_min":0,"x_max":0,"o":"m 262 97 l 378 61 l 433 227 l 813 227 l 813 344 l 472 344 l 519 485 l 813 485 l 813 601 l 558 601 l 602 733 l 486 770 l 430 601 l 64 601 l 64 485 l 391 485 l 344 344 l 64 344 l 64 227 l 306 227 z "},"¬":{"ha":864,"x_min":0,"x_max":0,"o":"m 683 308 l 683 158 l 800 158 l 800 416 l 64 416 l 64 308 z "},"←":{"ha":1090,"x_min":0,"x_max":0,"o":"m 114 403 l 379 135 l 462 219 l 287 396 l 1010 396 l 1010 515 l 288 515 l 463 688 l 378 774 l 114 506 z "},"↑":{"ha":831,"x_min":0,"x_max":0,"o":"m 356 723 l 356 0 l 476 0 l 476 722 l 649 548 l 735 633 l 467 897 l 365 897 l 97 631 l 180 548 z "},"→":{"ha":1090,"x_min":0,"x_max":0,"o":"m 627 218 l 710 135 l 976 403 l 976 505 l 711 773 l 627 688 l 801 514 l 79 514 l 79 395 l 802 395 z "},"↓":{"ha":831,"x_min":0,"x_max":0,"o":"m 97 265 l 365 0 l 467 0 l 735 264 l 649 349 l 476 174 l 476 897 l 356 897 l 356 174 l 180 349 z "},"∂":{"ha":1106,"x_min":0,"x_max":0,"o":"m 519 -27 b 998 422 801 -27 998 107 b 533 922 998 728 838 922 b 159 809 361 922 227 856 l 213 706 b 531 803 320 776 422 803 b 865 450 754 803 859 638 b 519 592 806 524 692 592 b 136 280 373 592 136 520 b 519 -27 136 51 321 -27 z m 277 280 b 528 473 277 415 393 473 b 855 325 674 473 784 415 b 529 90 820 151 685 90 b 277 280 371 90 277 153 z "},"∆":{"ha":1211,"x_min":0,"x_max":0,"o":"m 520 982 l 48 0 l 1163 0 l 686 982 z m 249 122 l 603 858 l 956 122 z "},"∏":{"ha":1078,"x_min":0,"x_max":0,"o":"m 154 913 l 154 -178 l 291 -178 l 291 801 l 788 801 l 788 -178 l 925 -178 l 925 913 z "},"∑":{"ha":997,"x_min":0,"x_max":0,"o":"m 113 -36 l 113 -169 l 933 -169 l 933 -55 l 273 -55 l 697 374 l 274 799 l 926 799 l 926 913 l 113 913 l 113 774 l 522 371 z "},"µ":{"ha":1028,"x_min":0,"x_max":0,"o":"m 133 674 l 133 -274 l 269 -274 l 269 35 b 441 -21 306 -3 364 -21 b 769 84 578 -21 697 33 l 785 1 l 894 1 l 894 674 l 755 674 l 755 196 b 463 99 715 165 605 99 b 273 335 334 99 273 144 l 273 674 z "},"∕":{"ha":553,"x_min":0,"x_max":0,"o":"m 19 -199 l 144 -237 l 559 1015 l 433 1053 z "},"√":{"ha":908,"x_min":0,"x_max":0,"o":"m 174 467 l 377 0 l 544 0 l 972 929 l 860 983 l 465 113 l 270 577 l 38 577 l 38 467 z "},"∞":{"ha":1317,"x_min":0,"x_max":0,"o":"m 96 334 b 362 79 96 175 199 79 b 624 213 463 79 542 117 l 651 247 l 681 213 b 955 79 761 115 844 79 b 1220 334 1117 79 1220 175 b 954 600 1220 507 1108 600 b 706 474 846 600 778 560 l 660 416 l 603 483 b 362 600 531 567 465 600 b 96 334 217 600 96 507 z m 219 338 b 362 494 219 429 270 494 b 488 431 405 494 442 483 l 581 326 l 526 264 b 369 183 485 217 436 183 b 219 338 272 183 219 247 z m 730 335 l 795 417 b 952 494 847 482 903 494 b 1097 338 1047 494 1097 429 b 948 183 1097 247 1044 183 b 790 265 881 183 831 217 z "},"∫":{"ha":849,"x_min":0,"x_max":0,"o":"m 22 -163 l -3 -276 b 208 -308 -3 -276 115 -308 b 492 -80 383 -308 492 -262 l 492 777 b 651 901 492 879 538 901 b 826 872 716 901 757 890 l 851 985 b 640 1017 851 985 726 1017 b 356 789 465 1017 356 971 l 356 -68 b 198 -192 356 -170 311 -192 b 22 -163 133 -192 92 -182 z "},"$":{"ha":1000,"x_min":0,"x_max":0,"o":"m 369 45 l 369 -110 l 458 -110 l 458 39 b 511 38 469 38 495 38 b 572 42 533 39 555 40 l 572 -110 l 660 -110 l 660 53 b 910 293 814 82 910 158 b 660 507 910 417 831 474 l 660 717 b 806 683 712 708 762 696 l 849 792 b 660 835 797 809 731 825 l 660 1000 l 572 1000 l 572 844 b 518 847 554 846 536 847 b 458 844 497 847 477 846 l 458 1000 l 369 1000 l 369 834 b 135 626 236 809 135 747 b 369 431 135 506 226 457 l 369 164 b 146 234 255 183 175 221 l 96 124 b 369 45 158 89 255 59 z m 266 634 b 369 721 266 676 303 706 l 369 551 b 266 634 295 570 266 595 z m 458 155 l 458 417 b 505 412 473 416 488 414 b 572 404 529 410 551 407 l 572 156 b 502 153 551 154 527 153 b 458 155 487 153 472 154 z m 458 535 l 458 731 b 509 733 474 733 491 733 b 572 730 530 733 551 731 l 572 521 b 517 528 555 523 536 526 b 458 535 496 530 476 533 z m 660 170 l 660 388 b 785 285 747 369 785 339 b 660 170 785 222 734 188 z "},"¢":{"ha":892,"x_min":0,"x_max":0,"o":"m 351 50 l 351 -94 l 441 -94 l 441 38 b 490 35 455 36 473 35 b 540 38 507 36 529 36 l 540 -94 l 631 -94 l 631 49 b 828 116 699 63 768 85 l 781 210 b 631 158 735 191 685 171 l 631 572 b 771 535 676 564 724 551 l 810 638 b 631 684 757 658 701 674 l 631 824 l 540 824 l 540 691 b 508 692 530 692 519 692 b 441 688 485 692 463 690 l 441 824 l 351 824 l 351 673 b 90 358 193 633 90 526 b 351 50 90 190 193 87 z m 219 357 b 351 558 219 452 265 523 l 351 168 b 219 357 267 200 219 264 z m 441 148 l 441 580 b 501 585 460 583 480 585 b 540 583 514 585 527 584 l 540 145 b 505 144 531 144 518 144 b 441 148 483 144 463 144 z "},"£":{"ha":887,"x_min":0,"x_max":0,"o":"m 131 115 l 131 0 l 824 0 l 824 117 l 271 117 l 317 385 l 755 385 l 755 492 l 335 492 l 364 654 b 554 805 388 786 475 805 b 781 760 624 805 716 783 l 825 865 b 554 922 763 891 667 922 b 230 675 406 922 267 881 l 197 492 l 77 492 l 77 385 l 178 385 z "},"¤":{"ha":911,"x_min":0,"x_max":0,"o":"m 615 192 l 722 93 l 802 174 l 704 269 b 747 418 732 310 747 361 b 685 587 747 485 724 544 l 776 678 l 699 756 l 595 651 b 458 680 555 669 508 680 b 313 648 405 680 355 669 l 211 751 l 128 669 l 219 576 b 167 418 187 534 167 481 b 210 270 167 360 183 310 l 109 174 l 191 95 l 290 197 b 458 155 335 170 393 155 b 615 192 518 155 572 168 z m 288 418 b 458 582 288 507 347 582 b 628 418 569 582 628 507 b 458 254 628 328 569 254 b 288 418 347 254 288 328 z "},"¥":{"ha":1147,"x_min":0,"x_max":0,"o":"m 499 192 l 499 0 l 642 0 l 642 192 l 946 192 l 946 300 l 674 300 l 747 396 l 946 396 l 946 503 l 830 503 l 1089 842 l 989 918 l 575 381 l 142 918 l 38 833 l 301 503 l 190 503 l 190 396 l 388 396 l 465 300 l 190 300 l 190 192 z "},"€":{"ha":1091,"x_min":0,"x_max":0,"o":"m 180 297 b 626 -27 226 85 382 -27 b 1014 78 784 -27 910 19 l 959 188 b 635 95 867 138 770 95 b 335 297 477 95 374 165 l 721 297 l 721 398 l 313 398 b 312 440 312 411 312 425 b 314 496 312 459 313 478 l 721 496 l 721 597 l 337 597 b 642 799 380 731 488 799 b 923 728 730 799 817 774 l 974 841 b 642 922 883 883 776 922 b 184 597 428 922 242 824 l 58 597 l 58 496 l 167 496 b 165 438 165 477 165 458 b 166 398 165 424 165 411 l 58 398 l 58 297 z "},"ƒ":{"ha":844,"x_min":0,"x_max":0,"o":"m -62 -147 l -96 -257 b 112 -290 -96 -257 -6 -290 b 420 -42 316 -290 407 -195 l 453 361 l 772 361 l 772 467 l 463 467 l 477 669 b 638 800 485 773 535 800 b 811 773 696 800 746 790 l 847 881 b 625 913 816 890 723 913 b 342 687 466 913 356 869 l 326 467 l 123 467 l 123 361 l 316 361 l 288 -24 b 115 -176 277 -129 218 -176 b -62 -147 56 -176 -1 -165 z "},"₱":{"ha":1162,"x_min":0,"x_max":0,"o":"m 216 413 l 216 0 l 353 0 l 353 219 l 643 219 b 1010 413 838 219 964 281 l 1144 413 l 1144 511 l 1029 511 b 1031 547 1031 522 1031 534 b 1028 599 1031 565 1030 582 l 1144 599 l 1144 698 l 1007 698 b 657 896 959 830 840 896 l 216 896 l 216 698 l 83 698 l 83 599 l 216 599 l 216 511 l 83 511 l 83 413 z m 353 328 l 353 413 l 865 413 b 647 328 830 359 762 328 z m 353 511 l 353 599 l 895 599 b 899 548 898 583 899 566 b 897 511 899 535 899 523 z m 353 698 l 353 788 l 659 788 b 860 698 752 788 821 757 z "},"^":{"ha":720,"x_min":0,"x_max":0,"o":"m 48 564 l 149 491 l 360 806 l 566 496 l 672 568 l 445 896 l 281 896 z "},"~":{"ha":791,"x_min":0,"x_max":0,"o":"m 512 256 b 727 376 606 256 678 317 l 663 448 b 526 374 640 424 585 374 b 416 422 483 374 453 399 b 267 470 378 446 335 470 b 64 371 189 470 105 408 l 117 287 b 258 349 148 311 199 349 b 372 300 303 349 334 324 b 512 256 408 278 449 256 z "},"´":{"ha":541,"x_min":0,"x_max":0,"o":"m 96 1082 l 153 990 l 444 1137 l 385 1242 z "},"`":{"ha":541,"x_min":0,"x_max":0,"o":"m 96 1137 l 388 990 l 444 1082 l 156 1242 z "},"˝":{"ha":802,"x_min":0,"x_max":0,"o":"m 163 1058 l 248 985 l 467 1201 l 376 1287 z m 457 1073 l 533 992 l 774 1187 l 691 1279 z "},"ˆ":{"ha":670,"x_min":0,"x_max":0,"o":"m 96 1062 l 177 985 l 336 1133 l 495 985 l 574 1063 l 392 1219 l 283 1219 z "},"ˇ":{"ha":670,"x_min":0,"x_max":0,"o":"m 96 1173 l 278 1018 l 388 1018 l 574 1175 l 497 1251 l 337 1103 l 179 1251 z "},"˘":{"ha":653,"x_min":0,"x_max":0,"o":"m 207 1210 l 96 1194 b 326 990 106 1074 178 990 b 556 1194 472 990 545 1078 l 446 1210 b 326 1090 430 1108 378 1090 b 207 1210 277 1090 223 1108 z "},"˜":{"ha":729,"x_min":0,"x_max":0,"o":"m 350 1041 b 466 1006 380 1023 417 1006 b 637 1157 535 1006 601 1039 l 544 1192 b 467 1113 522 1134 499 1113 b 378 1147 434 1113 407 1129 b 260 1192 344 1169 308 1192 b 93 1050 185 1192 124 1151 l 183 1009 b 262 1083 203 1053 224 1083 b 350 1041 290 1083 315 1061 z "},"¯":{"ha":640,"x_min":0,"x_max":0,"o":"m 96 1137 l 96 1029 l 543 1029 l 543 1137 z "},"¨":{"ha":617,"x_min":0,"x_max":0,"o":"m 96 1155 l 96 1013 l 245 1013 l 245 1155 z m 372 1013 l 520 1013 l 520 1155 l 372 1155 z "},"˙":{"ha":341,"x_min":0,"x_max":0,"o":"m 96 1155 l 96 1013 l 245 1013 l 245 1155 z "},"˚":{"ha":551,"x_min":0,"x_max":0,"o":"m 96 1123 b 275 969 96 1035 162 969 b 454 1123 383 969 454 1035 b 275 1276 454 1210 381 1276 b 96 1123 168 1276 96 1210 z m 194 1123 b 275 1196 194 1162 223 1196 b 355 1123 327 1196 355 1162 b 275 1050 355 1084 325 1050 b 194 1123 223 1050 194 1084 z "},"¸":{"ha":550,"x_min":0,"x_max":0,"o":"m 133 -173 l 108 -263 b 264 -290 135 -273 197 -290 b 453 -143 383 -290 453 -237 b 191 81 453 -44 382 31 l 149 9 b 338 -134 309 -40 338 -95 b 258 -195 338 -176 306 -195 b 133 -173 224 -195 173 -186 z "},"˛":{"ha":630,"x_min":0,"x_max":0,"o":"m 132 -143 b 306 -290 132 -237 198 -290 b 469 -263 377 -290 444 -272 l 444 -173 b 316 -194 401 -186 354 -194 b 249 -133 283 -194 249 -178 b 462 23 249 -90 297 -36 l 367 87 b 132 -143 226 26 132 -42 z "},"©":{"ha":1199,"x_min":0,"x_max":0,"o":"m 600 -25 b 1103 444 908 -25 1103 170 b 600 912 1103 717 901 912 b 97 444 297 912 97 717 b 600 -25 97 170 289 -25 z m 198 444 b 600 819 198 658 347 819 b 1001 444 853 819 1001 658 b 600 68 1001 229 853 68 b 198 444 347 68 198 229 z m 320 441 b 596 189 320 276 432 189 b 826 260 668 189 762 213 l 781 340 b 603 283 731 308 669 283 b 433 438 503 283 433 331 b 606 603 433 554 508 603 b 774 558 651 603 711 591 l 810 644 b 601 695 756 674 688 695 b 320 441 447 695 320 608 z "},"®":{"ha":718,"x_min":0,"x_max":0,"o":"m 391 569 l 425 487 l 494 510 l 462 583 b 501 656 488 599 501 624 b 385 747 501 717 460 747 l 233 747 l 233 498 l 308 498 l 308 569 z m 40 620 b 358 323 40 447 162 323 b 678 620 554 323 678 447 b 358 915 678 793 551 915 b 40 620 166 915 40 793 z m 119 620 b 358 846 119 743 197 846 b 597 620 519 846 597 743 b 358 394 597 496 519 394 b 119 620 197 394 119 496 z m 308 626 l 308 691 l 383 691 b 426 657 412 691 426 680 b 383 626 426 635 416 626 z "},"™":{"ha":1401,"x_min":0,"x_max":0,"o":"m 640 896 l 640 443 l 740 443 l 740 811 l 901 498 l 1038 498 l 1192 816 l 1192 443 l 1292 443 l 1292 896 l 1128 896 l 972 572 l 811 896 z m 32 811 l 244 811 l 244 443 l 347 443 l 347 811 l 536 811 l 536 896 l 32 896 z "},"°":{"ha":628,"x_min":0,"x_max":0,"o":"m 58 681 b 314 447 58 541 158 447 b 570 681 470 447 570 541 b 314 915 570 822 467 915 b 58 681 160 915 58 822 z m 172 681 b 314 820 172 756 222 820 b 455 681 405 820 455 756 b 314 543 455 607 405 543 b 172 681 222 543 172 607 z "},"◊":{"ha":968,"x_min":0,"x_max":0,"o":"m 109 438 l 399 0 l 569 0 l 859 438 l 569 896 l 399 896 z m 262 438 l 483 803 l 710 438 l 486 90 z "},"₹":{"ha":1031,"x_min":0,"x_max":0,"o":"m 552 273 l 692 -27 l 814 33 l 680 316 b 822 525 758 359 809 428 l 951 525 l 951 635 l 817 635 b 714 786 803 699 768 758 l 951 786 l 951 897 l 162 897 l 162 785 l 428 785 b 678 635 574 785 656 731 l 162 635 l 162 525 l 681 525 b 428 376 663 436 590 376 l 162 376 l 162 264 l 444 264 b 552 273 483 264 519 267 z "},"ﬀ":{"ha":1290,"x_min":0,"x_max":0,"o":"m 208 0 l 348 0 l 348 561 l 783 561 l 783 0 l 923 0 l 923 561 l 1276 561 l 1276 674 l 923 674 l 923 762 b 1098 889 923 859 975 889 b 1288 859 1168 889 1219 876 l 1318 973 b 1082 1008 1263 988 1172 1008 b 783 776 913 1008 783 963 l 783 674 l 348 674 l 348 748 b 512 875 348 845 397 875 b 676 852 573 875 618 865 l 701 965 b 496 994 653 977 577 994 b 208 763 333 994 208 949 l 208 674 l 70 674 l 70 561 l 208 561 z "},"ﬁ":{"ha":1024,"x_min":0,"x_max":0,"o":"m 208 0 l 348 0 l 348 563 l 756 563 l 756 0 l 895 0 l 895 674 l 348 674 l 348 762 b 548 889 348 859 408 889 b 765 859 627 889 686 877 l 794 973 b 533 1008 735 988 631 1008 b 208 776 349 1008 208 963 l 208 674 l 70 674 l 70 561 l 208 561 z "},"ﬂ":{"ha":1066,"x_min":0,"x_max":0,"o":"m 208 561 l 208 0 l 348 0 l 348 561 l 647 561 l 647 674 l 348 674 l 348 754 b 510 881 348 851 397 881 b 661 854 567 881 608 870 l 690 967 b 494 1000 644 981 572 1000 b 208 769 333 1000 208 955 l 208 674 l 70 674 l 70 561 z m 798 0 l 938 0 l 938 982 l 798 982 z "},"ﬃ":{"ha":1598,"x_min":0,"x_max":0,"o":"m 208 0 l 348 0 l 348 561 l 783 561 l 783 0 l 923 0 l 923 561 l 1331 561 l 1331 0 l 1470 0 l 1470 674 l 923 674 l 923 762 b 1122 889 923 859 982 889 b 1340 859 1201 889 1260 877 l 1369 973 b 1108 1008 1310 988 1206 1008 b 783 776 924 1008 783 963 l 783 674 l 348 674 l 348 748 b 512 875 348 845 397 875 b 676 852 573 875 618 865 l 701 965 b 496 994 653 977 577 994 b 208 763 333 994 208 949 l 208 674 l 70 674 l 70 561 l 208 561 z "},"ﬄ":{"ha":1640,"x_min":0,"x_max":0,"o":"m 208 0 l 348 0 l 348 561 l 783 561 l 783 0 l 922 0 l 922 561 l 1221 561 l 1221 674 l 922 674 l 922 754 b 1084 881 922 851 971 881 b 1235 854 1141 881 1182 870 l 1264 967 b 1067 1000 1217 982 1146 1000 b 783 769 907 1000 783 955 l 783 674 l 348 674 l 348 748 b 512 875 348 845 397 875 b 676 852 573 875 618 865 l 701 965 b 496 994 653 977 577 994 b 208 763 333 994 208 949 l 208 674 l 70 674 l 70 561 l 208 561 z m 1372 0 l 1512 0 l 1512 982 l 1372 982 z "},"₀":{"ha":764,"x_min":0,"x_max":0,"o":"m 94 39 b 380 -233 94 -147 223 -233 b 669 42 536 -233 669 -151 b 389 320 669 235 539 320 b 94 39 241 320 94 244 z m 219 41 b 385 222 219 158 292 222 b 545 41 474 222 545 158 b 385 -135 545 -73 474 -135 b 219 41 292 -135 219 -73 z "},"₁":{"ha":764,"x_min":0,"x_max":0,"o":"m 148 -114 l 148 -215 l 667 -215 l 667 -114 l 481 -114 l 481 303 l 393 303 l 176 249 l 192 151 l 366 188 l 366 -114 z "},"₂":{"ha":764,"x_min":0,"x_max":0,"o":"m 129 -133 l 129 -215 l 672 -215 l 672 -115 l 250 -115 l 250 -110 b 396 -9 250 -90 267 -47 l 493 21 b 658 175 605 56 658 94 b 425 320 658 272 577 320 b 151 260 327 320 221 292 l 187 167 b 424 221 258 200 341 221 b 533 172 501 221 533 201 b 447 106 533 147 517 127 l 346 74 b 129 -133 176 22 129 -44 z "},"₃":{"ha":764,"x_min":0,"x_max":0,"o":"m 362 -233 b 663 -56 538 -233 663 -192 b 538 79 663 4 621 68 b 628 184 594 94 628 131 b 401 320 628 290 519 320 b 140 271 292 320 195 292 l 166 181 b 395 226 230 206 324 226 b 497 171 470 226 497 202 b 385 100 497 126 471 99 l 247 101 l 247 9 l 410 9 b 532 -59 490 9 532 -9 b 374 -136 532 -108 482 -136 b 138 -95 277 -136 192 -114 l 111 -189 b 362 -233 172 -212 265 -233 z "},"₄":{"ha":764,"x_min":0,"x_max":0,"o":"m 481 -114 l 481 -215 l 589 -215 l 589 -114 l 688 -114 l 688 -22 l 589 -22 l 589 303 l 437 303 l 115 -8 l 115 -114 z m 231 -22 l 481 219 l 481 -22 z "},"₅":{"ha":764,"x_min":0,"x_max":0,"o":"m 396 -233 b 673 -53 567 -233 673 -173 b 436 115 673 71 570 115 b 275 89 374 115 321 104 l 287 208 l 602 208 l 602 303 l 197 303 l 170 39 l 235 -9 b 419 24 285 9 339 24 b 552 -58 497 24 552 6 b 406 -133 552 -106 503 -133 b 167 -83 313 -133 219 -106 l 133 -181 b 396 -233 175 -199 268 -233 z "},"₆":{"ha":764,"x_min":0,"x_max":0,"o":"m 410 -233 b 678 -45 580 -233 678 -153 b 458 127 678 83 576 127 b 237 56 365 127 284 97 b 446 224 240 162 333 224 b 602 193 502 224 551 213 l 641 283 b 447 320 601 301 524 320 b 122 28 237 320 122 208 b 410 -233 122 -151 234 -233 z m 245 -37 b 447 39 286 3 375 39 b 565 -44 515 39 565 8 b 412 -137 565 -108 497 -137 b 245 -37 336 -137 267 -109 z "},"₇":{"ha":764,"x_min":0,"x_max":0,"o":"m 242 -158 l 332 -233 l 665 195 l 665 303 l 144 303 l 144 203 l 531 203 z "},"₈":{"ha":764,"x_min":0,"x_max":0,"o":"m 119 -83 b 392 -231 119 -191 240 -231 b 665 -84 542 -231 665 -183 b 522 58 665 -3 606 46 b 634 174 586 71 634 105 b 392 320 634 263 542 320 b 151 173 260 320 151 269 b 265 53 151 104 202 71 b 119 -83 179 37 119 -6 z m 241 -73 b 392 11 241 -19 306 11 b 544 -73 481 11 544 -20 b 392 -142 544 -112 495 -142 b 241 -73 291 -142 241 -113 z m 272 167 b 392 235 272 210 315 235 b 513 167 472 235 513 210 b 392 94 513 122 456 94 b 272 167 329 94 272 122 z "},"₉":{"ha":764,"x_min":0,"x_max":0,"o":"m 354 -233 b 677 51 578 -233 677 -130 b 405 320 677 238 556 320 b 134 126 253 320 134 256 b 344 -43 134 -11 253 -43 b 561 22 452 -43 528 -8 l 561 13 b 368 -138 557 -87 485 -138 b 183 -105 294 -138 242 -126 l 156 -200 b 354 -233 193 -216 271 -233 z m 247 130 b 397 230 247 189 301 230 b 557 107 472 230 540 194 b 367 46 515 74 443 46 b 247 130 300 46 247 71 z "},"₍":{"ha":382,"x_min":0,"x_max":0,"o":"m 109 52 b 234 -271 109 -106 180 -207 l 321 -207 b 223 52 285 -158 223 -67 b 320 293 223 163 267 231 l 235 356 b 109 52 175 293 109 208 z "},"₎":{"ha":382,"x_min":0,"x_max":0,"o":"m 99 -207 l 185 -271 b 311 52 240 -207 311 -106 b 185 356 311 208 245 293 l 99 293 b 197 52 153 231 197 163 b 99 -207 197 -67 135 -158 z "},"¹":{"ha":764,"x_min":0,"x_max":0,"o":"m 148 599 l 148 497 l 667 497 l 667 599 l 481 599 l 481 1015 l 393 1015 l 176 961 l 192 863 l 366 900 l 366 599 z "},"²":{"ha":764,"x_min":0,"x_max":0,"o":"m 129 579 l 129 497 l 672 497 l 672 597 l 250 597 l 250 603 b 396 703 250 623 267 665 l 493 733 b 658 888 605 768 658 806 b 425 1033 658 985 577 1033 b 151 972 327 1033 221 1005 l 187 880 b 424 933 258 913 341 933 b 533 884 501 933 533 914 b 447 818 533 859 517 840 l 346 786 b 129 579 176 734 129 669 z "},"³":{"ha":764,"x_min":0,"x_max":0,"o":"m 362 480 b 663 656 538 480 663 521 b 538 792 663 717 621 781 b 628 897 594 807 628 843 b 401 1033 628 1002 519 1033 b 140 983 292 1033 195 1004 l 166 893 b 395 938 230 918 324 938 b 497 883 470 938 497 915 b 385 813 497 838 471 812 l 247 813 l 247 722 l 410 722 b 532 653 490 722 532 703 b 374 576 532 605 482 576 b 138 617 277 576 192 599 l 111 524 b 362 480 172 500 265 480 z "},"⁰":{"ha":764,"x_min":0,"x_max":0,"o":"m 94 751 b 380 480 94 566 223 480 b 669 755 536 480 669 561 b 389 1033 669 947 539 1033 b 94 751 241 1033 94 956 z m 219 753 b 385 934 219 870 292 934 b 545 753 474 934 545 870 b 385 577 545 640 474 577 b 219 753 292 577 219 640 z "},"⁴":{"ha":764,"x_min":0,"x_max":0,"o":"m 481 599 l 481 497 l 589 497 l 589 599 l 688 599 l 688 691 l 589 691 l 589 1015 l 437 1015 l 115 704 l 115 599 z m 231 691 l 481 931 l 481 691 z "},"⁵":{"ha":764,"x_min":0,"x_max":0,"o":"m 396 480 b 673 660 567 480 673 540 b 436 828 673 783 570 828 b 275 801 374 828 321 817 l 287 920 l 602 920 l 602 1015 l 197 1015 l 170 751 l 235 703 b 419 737 285 722 339 737 b 552 655 497 737 552 719 b 406 579 552 607 503 579 b 167 630 313 579 219 607 l 133 532 b 396 480 175 514 268 480 z "},"⁶":{"ha":764,"x_min":0,"x_max":0,"o":"m 410 480 b 678 667 580 480 678 559 b 458 840 678 796 576 840 b 237 769 365 840 284 810 b 446 936 240 874 333 936 b 602 906 502 936 551 926 l 641 996 b 447 1033 601 1014 524 1033 b 122 741 237 1033 122 921 b 410 480 122 562 234 480 z m 245 676 b 447 751 286 716 375 751 b 565 668 515 751 565 721 b 412 576 565 604 497 576 b 245 676 336 576 267 603 z "},"⁷":{"ha":764,"x_min":0,"x_max":0,"o":"m 242 555 l 332 480 l 665 908 l 665 1015 l 144 1015 l 144 916 l 531 916 z "},"⁸":{"ha":764,"x_min":0,"x_max":0,"o":"m 119 629 b 392 482 119 522 240 482 b 665 628 542 482 665 530 b 522 771 665 710 606 758 b 634 887 586 783 634 817 b 392 1033 634 976 542 1033 b 151 885 260 1033 151 981 b 265 766 151 817 202 783 b 119 629 179 749 119 707 z m 241 640 b 392 724 241 693 306 724 b 544 640 481 724 544 692 b 392 570 544 601 495 570 b 241 640 291 570 241 599 z m 272 880 b 392 948 272 923 315 948 b 513 880 472 948 513 923 b 392 807 513 835 456 807 b 272 880 329 807 272 835 z "},"⁹":{"ha":764,"x_min":0,"x_max":0,"o":"m 354 480 b 677 764 578 480 677 583 b 405 1033 677 951 556 1033 b 134 839 253 1033 134 969 b 344 669 134 701 253 669 b 561 734 452 669 528 704 l 561 725 b 368 574 557 625 485 574 b 183 608 294 574 242 587 l 156 513 b 354 480 193 497 271 480 z m 247 842 b 397 942 247 901 301 942 b 557 819 472 942 540 907 b 367 758 515 786 443 758 b 247 842 300 758 247 783 z "},"⁽":{"ha":382,"x_min":0,"x_max":0,"o":"m 109 765 b 234 442 109 607 180 506 l 321 506 b 223 765 285 554 223 646 b 320 1006 223 875 267 944 l 235 1068 b 109 765 175 1006 109 921 z "},"⁾":{"ha":382,"x_min":0,"x_max":0,"o":"m 99 506 l 185 442 b 311 765 240 506 311 607 b 185 1068 311 921 245 1006 l 99 1006 b 197 765 153 944 197 875 b 99 506 197 646 135 554 z "},"⁺":{"ha":382,"x_min":0,"x_max":0,"o":"m 142 719 l 142 597 l 244 597 l 244 719 l 357 719 l 357 806 l 244 806 l 244 919 l 142 919 l 142 806 l 26 806 l 26 719 z "},"⁻":{"ha":382,"x_min":0,"x_max":0,"o":"m 26 813 l 26 708 l 357 708 l 357 813 z "},"⁼":{"ha":382,"x_min":0,"x_max":0,"o":"m 26 730 l 26 633 l 357 633 l 357 730 z m 26 798 l 357 798 l 357 895 l 26 895 z "},"ẞ":{"ha":2188,"x_min":0,"x_max":0,"o":"m 1251 183 l 1203 58 b 1619 -27 1302 9 1449 -27 b 2092 269 1924 -27 2092 57 b 1715 529 2092 486 1901 517 b 1365 656 1538 540 1365 535 b 1651 795 1365 749 1453 795 b 1992 739 1781 795 1885 771 l 2033 860 b 1648 921 1944 890 1801 921 b 1223 650 1428 921 1223 849 b 1619 397 1223 427 1427 407 b 1954 260 1791 388 1954 388 b 1625 100 1954 144 1838 100 b 1251 183 1480 100 1352 134 z m 109 58 b 526 -27 208 9 355 -27 b 998 269 831 -27 998 57 b 622 529 998 486 807 517 b 272 656 444 540 272 535 b 557 795 272 749 359 795 b 898 739 687 795 792 771 l 939 860 b 554 921 850 890 707 921 b 129 650 334 921 129 849 b 526 397 129 427 333 407 b 860 260 697 388 860 388 b 531 100 860 144 744 100 b 157 183 386 100 258 134 z "}," ":{"ha":694,"x_min":0,"x_max":0,"o":""}," ":{"ha":471,"x_min":0,"x_max":0,"o":""}," ":{"ha":1389,"x_min":0,"x_max":0,"o":""}}}
